<svg width="16" height="16" viewBox="0 0 16 16" fill="none" xmlns="http://www.w3.org/2000/svg">
<path fill-rule="evenodd" clip-rule="evenodd" d="M14.0209 7.9979C14.0209 11.3242 11.3243 14.0208 7.998 14.0208C4.67165 14.0208 1.9751 11.3242 1.9751 7.9979C1.9751 4.67155 4.67165 1.975 7.998 1.975C11.3243 1.975 14.0209 4.67155 14.0209 7.9979ZM8.90843 4.97307C8.90843 5.51048 8.48331 5.94614 7.95889 5.94614C7.43446 5.94614 7.00934 5.51048 7.00934 4.97307C7.00934 4.43567 7.43446 4 7.95889 4C8.48331 4 8.90843 4.43567 8.90843 4.97307ZM8.90843 8.62828C8.90843 8.63757 8.91002 8.64678 8.91313 8.65553L9.86904 11.3469C9.95872 11.5994 9.83167 11.8786 9.58528 11.9705C9.33889 12.0624 9.06644 11.9322 8.97675 11.6797L8.07815 9.14969C8.05251 9.07749 7.9504 9.07749 7.92476 9.14969L7.02618 11.6797C6.9365 11.9322 6.66405 12.0624 6.41765 11.9705C6.17126 11.8786 6.04422 11.5994 6.1339 11.3469L7.01411 8.86864C7.01468 8.86704 7.0135 8.86535 7.0118 8.86535C7.01044 8.86535 7.00934 8.86425 7.00934 8.8629V7.44995C7.00934 7.4174 6.98995 7.38799 6.96004 7.37515L4.79168 6.44488C4.54981 6.34113 4.43581 6.05608 4.53708 5.8082C4.63834 5.56033 4.9165 5.44354 5.15836 5.5473L7.20674 6.42608C7.21688 6.43043 7.2278 6.43268 7.23883 6.43268H8.76141C8.77245 6.43268 8.78336 6.43043 8.7935 6.42608L10.8419 5.5473C11.0837 5.44354 11.3619 5.56033 11.4632 5.8082C11.5644 6.05608 11.4504 6.34113 11.2086 6.44488L8.95655 7.41103C8.92856 7.42305 8.90843 7.44949 8.90843 7.47995V8.62828Z" fill="black"/>
<path d="M7.998 14.0208C11.3243 14.0208 14.0209 11.3242 14.0209 7.99791C14.0209 4.67156 11.3243 1.97501 7.998 1.97501C4.67165 1.97501 1.9751 4.67156 1.9751 7.99791C1.9751 11.3242 4.67165 14.0208 7.998 14.0208Z" stroke="black"/>
</svg>
