<svg width="16" height="16" viewBox="0 0 16 16" fill="none" xmlns="http://www.w3.org/2000/svg">
<path fill-rule="evenodd" clip-rule="evenodd" d="M1.4751 7.99791C1.4751 4.39541 4.39551 1.47501 7.998 1.47501C11.6005 1.47501 14.5209 4.39541 14.5209 7.99791C14.5209 11.6004 11.6005 14.5208 7.998 14.5208C4.3955 14.5208 1.4751 11.6004 1.4751 7.99791ZM7.998 2.47501C4.94779 2.47501 2.4751 4.9477 2.4751 7.99791C2.4751 11.0481 4.94779 13.5208 7.998 13.5208C11.0482 13.5208 13.5209 11.0481 13.5209 7.99791C13.5209 4.9477 11.0482 2.47501 7.998 2.47501ZM8.5773 7.114C8.5773 6.388 7.9593 5.926 7.1733 5.926C6.3873 5.926 5.7693 6.388 5.7693 7.114C5.7693 7.534 5.9913 7.858 6.3873 8.038C5.9193 8.188 5.5473 8.578 5.5473 9.106C5.5473 9.874 6.2433 10.366 7.1733 10.366C8.1033 10.366 8.7993 9.874 8.7993 9.106C8.7993 8.578 8.4273 8.188 7.9593 8.038C8.3553 7.858 8.5773 7.534 8.5773 7.114ZM7.8933 7.126C7.8933 7.492 7.6053 7.732 7.1733 7.732C6.7473 7.732 6.4533 7.492 6.4533 7.126C6.4533 6.766 6.7473 6.52 7.1733 6.52C7.6053 6.52 7.8933 6.766 7.8933 7.126ZM6.3033 9.052C6.3033 8.644 6.6573 8.356 7.1733 8.356C7.6893 8.356 8.0493 8.644 8.0493 9.052C8.0493 9.478 7.6893 9.76 7.1733 9.76C6.6573 9.76 6.3033 9.478 6.3033 9.052ZM3.54012 6.706L3.12012 6.742V7.312H4.15812V10.3H4.92612V5.962H4.34412C4.30212 6.472 4.08012 6.658 3.54012 6.706ZM11.4001 6.5C11.4001 6.27909 11.221 6.1 11.0001 6.1C10.7792 6.1 10.6001 6.27909 10.6001 6.5V7.6H9.50012C9.27921 7.6 9.10012 7.77909 9.10012 8C9.10012 8.22091 9.27921 8.4 9.50012 8.4H10.6001V9.5C10.6001 9.72091 10.7792 9.9 11.0001 9.9C11.221 9.9 11.4001 9.72091 11.4001 9.5V8.4H12.5001C12.721 8.4 12.9001 8.22091 12.9001 8C12.9001 7.77909 12.721 7.6 12.5001 7.6H11.4001V6.5Z" fill="black"/>
</svg>
