<svg width="16" height="16" viewBox="0 0 16 16" fill="none" xmlns="http://www.w3.org/2000/svg">
<path fill-rule="evenodd" clip-rule="evenodd" d="M8.91304 4C9.07873 4 9.21304 4.13431 9.21304 4.3V5.21739H10.1304C10.2961 5.21739 10.4304 5.35171 10.4304 5.51739C10.4304 5.68308 10.2961 5.81739 10.1304 5.81739H9.21304V6.73478C9.21304 6.90047 9.07873 7.03478 8.91304 7.03478C8.74736 7.03478 8.61304 6.90047 8.61304 6.73478V5.81739H7.69565C7.52997 5.81739 7.39565 5.68308 7.39565 5.51739C7.39565 5.35171 7.52997 5.21739 7.69565 5.21739H8.61304V4.3C8.61304 4.13431 8.74736 4 8.91304 4ZM12.5652 5.76087C12.5652 5.87318 12.5804 5.98194 12.6089 6.08521L9.51134 9.56996C9.33465 9.47006 9.1305 9.41304 8.91304 9.41304C8.71266 9.41304 8.52359 9.46145 8.35688 9.54722L6.96446 7.87632C7.04293 7.71538 7.08696 7.53457 7.08696 7.34347C7.08696 6.67112 6.54191 6.12608 5.86957 6.12608C5.19722 6.12608 4.65217 6.67112 4.65217 7.34347C4.65217 7.49544 4.68002 7.6409 4.73089 7.77504L2.64896 9.85697C2.51482 9.80611 2.36936 9.77826 2.21739 9.77826C1.54504 9.77826 1 10.3233 1 10.9957C1 11.668 1.54504 12.213 2.21739 12.213C2.88974 12.213 3.43478 11.668 3.43478 10.9957C3.43478 10.8437 3.40694 10.6982 3.35607 10.5641L5.43799 8.48215C5.57213 8.53301 5.7176 8.56086 5.86957 8.56086C5.98273 8.56086 6.0923 8.54542 6.19626 8.51653L7.72724 10.3537C7.70658 10.4426 7.69565 10.5352 7.69565 10.6304C7.69565 11.3028 8.2407 11.8478 8.91304 11.8478C9.58539 11.8478 10.1304 11.3028 10.1304 10.6304C10.1304 10.5526 10.1231 10.4764 10.1092 10.4026L13.2583 6.85986C13.4171 6.93576 13.5949 6.97826 13.7826 6.97826C14.455 6.97826 15 6.43321 15 5.76087C15 5.08852 14.455 4.54347 13.7826 4.54347C13.1103 4.54347 12.5652 5.08852 12.5652 5.76087ZM2.97609 6.12609C2.97609 6.04324 2.90893 5.97609 2.82609 5.97609C2.74324 5.97609 2.67609 6.04324 2.67609 6.12609V6.58478H2.21739C2.13455 6.58478 2.06739 6.65194 2.06739 6.73478C2.06739 6.81763 2.13455 6.88478 2.21739 6.88478H2.67609V7.34348C2.67609 7.42632 2.74324 7.49348 2.82609 7.49348C2.90893 7.49348 2.97609 7.42632 2.97609 7.34348V6.88478H3.43478C3.51763 6.88478 3.58478 6.81763 3.58478 6.73478C3.58478 6.65194 3.51763 6.58478 3.43478 6.58478H2.97609V6.12609Z" fill="black"/>
</svg>
