<svg width="16" height="16" viewBox="0 0 16 16" fill="none" xmlns="http://www.w3.org/2000/svg">
<path fill-rule="evenodd" clip-rule="evenodd" d="M8.65412 2.11818C8.79113 1.87842 8.70783 1.57299 8.46807 1.43599C8.22831 1.29898 7.92288 1.38228 7.78588 1.62204L1.06588 13.382C0.977449 13.5368 0.978084 13.7269 1.06754 13.8811C1.15701 14.0352 1.32176 14.1301 1.5 14.1301H8.22H14.38C14.6561 14.1301 14.88 13.9063 14.88 13.6301C14.88 13.354 14.6561 13.1301 14.38 13.1301H8.69744C8.57653 11.775 7.98565 10.4792 7.31236 9.49735C6.93227 8.94305 6.51367 8.47054 6.11398 8.13052C5.91432 7.96068 5.71069 7.81646 5.51097 7.71244C5.49728 7.70531 5.48344 7.69828 5.46945 7.69136L8.65412 2.11818ZM4.97151 8.56276L2.36159 13.1301H7.6926C7.57376 12.0265 7.08208 10.9298 6.48764 10.0629C6.14773 9.56718 5.78633 9.16469 5.46602 8.8922C5.30568 8.7558 5.16431 8.65939 5.04903 8.59935C5.02034 8.5844 4.99449 8.57236 4.97151 8.56276Z" fill="black"/>
</svg>
