<svg width="16" height="16" viewBox="0 0 16 16" fill="none" xmlns="http://www.w3.org/2000/svg">
<path fill-rule="evenodd" clip-rule="evenodd" d="M3.17093 2.27639C3.25563 2.107 3.42876 2 3.61814 2H12.3821C12.5715 2 12.7446 2.107 12.8293 2.27639L13.1911 3H8.00008H2.80913L3.17093 2.27639ZM1.51029 3.39898C1.50274 3.43548 1.49941 3.4723 1.50008 3.50879V6.5C1.50008 7.15312 1.9175 7.70875 2.50011 7.91466V13.5C2.50011 14.3284 3.17168 15 4.00011 15H12.0001C12.8285 15 13.5001 14.3284 13.5001 13.5V7.91464C14.0827 7.70871 14.5001 7.1531 14.5001 6.5V3.51118C14.5012 3.46524 14.4959 3.41877 14.4838 3.37305C14.4742 3.33634 14.4605 3.30128 14.4433 3.26837L13.7237 1.82918C13.4696 1.321 12.9502 1 12.3821 1H3.61814C3.04999 1 2.53059 1.321 2.2765 1.82918L1.55784 3.2665C1.5361 3.3076 1.51991 3.35209 1.51029 3.39898ZM3.50011 13.5V8H12.5001V13.5C12.5001 13.7761 12.2763 14 12.0001 14H4.00011C3.72397 14 3.50011 13.7761 3.50011 13.5ZM3.00008 7H3.00011H13.0001C13.2762 7 13.5001 6.77614 13.5001 6.5V4H8.00008H2.50008V6.5C2.50008 6.77614 2.72394 7 3.00008 7ZM6.00011 9C5.72397 9 5.50011 9.22386 5.50011 9.5C5.50011 9.77614 5.72397 10 6.00011 10H10.0001C10.2763 10 10.5001 9.77614 10.5001 9.5C10.5001 9.22386 10.2763 9 10.0001 9H6.00011Z" fill="black"/>
</svg>
