<svg width="16" height="16" viewBox="0 0 16 16" fill="none" xmlns="http://www.w3.org/2000/svg">
<path fill-rule="evenodd" clip-rule="evenodd" d="M10.2791 1.29289C9.88861 0.90237 9.25544 0.902368 8.86492 1.29289L3.55912 6.59869C3.1686 6.98921 3.1686 7.62238 3.55912 8.0129L4.21132 8.6651C4.53592 8.98969 4.51695 9.52151 4.17005 9.82216L1.80897 11.8684C1.16218 12.429 1.12681 13.4206 1.73202 14.0258C2.33723 14.631 3.32882 14.5956 3.88937 13.9488L5.93564 11.5877C6.23628 11.2409 6.7681 11.2219 7.0927 11.5465L7.7449 12.1987C8.13542 12.5892 8.76859 12.5892 9.15911 12.1987L14.4649 6.89288C14.8554 6.50236 14.8554 5.86919 14.4649 5.47867L10.2791 1.29289ZM14.0534 6.18577L9.57202 1.70442L6.21133 5.06512L10.6927 9.54647L14.0534 6.18577ZM2.57168 13.1854C2.72613 13.3399 2.97669 13.3397 3.13133 13.1851C3.28597 13.0305 3.28613 12.7799 3.13168 12.6254C2.97722 12.471 2.72666 12.4711 2.57202 12.6258C2.41738 12.7804 2.41723 13.031 2.57168 13.1854ZM7.89202 3.38579C8.26535 3.75912 9.12401 4.39378 9.57201 3.94579C10.02 3.49779 10.5053 3.75912 10.692 3.94579C10.8787 4.13245 11.028 4.72978 10.132 5.62578C9.23601 6.52178 9.75868 6.74578 10.132 6.74578H11.252C11.7187 6.65245 12.484 6.63378 11.812 7.30578C11.14 7.97778 11.3453 8.51911 11.532 8.70577L14.052 6.18578L9.57201 1.70579L7.89202 3.38579Z" fill="black"/>
</svg>
