<svg width="16" height="16" viewBox="0 0 16 16" fill="none" xmlns="http://www.w3.org/2000/svg">
<path fill-rule="evenodd" clip-rule="evenodd" d="M6 2C6 1.72386 5.77614 1.5 5.5 1.5C5.22386 1.5 5 1.72386 5 2V3.5H3.09091C2.48842 3.5 2 3.94772 2 4.5V5.5H14V4.5C14 3.94772 13.5116 3.5 12.9091 3.5H11V2C11 1.72386 10.7761 1.5 10.5 1.5C10.2239 1.5 10 1.72386 10 2V3.5H6V2ZM2 6.5V12.5C2 13.0523 2.48842 13.5 3.09091 13.5H12.9091C13.5116 13.5 14 13.0523 14 12.5V6.5H2ZM8.5 7.7C8.5 7.97614 8.27614 8.2 8 8.2C7.72386 8.2 7.5 7.97614 7.5 7.7C7.5 7.42385 7.72386 7.2 8 7.2C8.27614 7.2 8.5 7.42385 8.5 7.7ZM8.5 9.7C8.5 9.97614 8.27614 10.2 8 10.2C7.72386 10.2 7.5 9.97614 7.5 9.7C7.5 9.42385 7.72386 9.2 8 9.2C8.27614 9.2 8.5 9.42385 8.5 9.7ZM8 12.2C8.27614 12.2 8.5 11.9761 8.5 11.7C8.5 11.4239 8.27614 11.2 8 11.2C7.72386 11.2 7.5 11.4239 7.5 11.7C7.5 11.9761 7.72386 12.2 8 12.2ZM6.5 9.7C6.5 9.97614 6.27614 10.2 6 10.2C5.72386 10.2 5.5 9.97614 5.5 9.7C5.5 9.42385 5.72386 9.2 6 9.2C6.27614 9.2 6.5 9.42385 6.5 9.7ZM6 12.2C6.27614 12.2 6.5 11.9761 6.5 11.7C6.5 11.4239 6.27614 11.2 6 11.2C5.72386 11.2 5.5 11.4239 5.5 11.7C5.5 11.9761 5.72386 12.2 6 12.2ZM4.5 9.7C4.5 9.97614 4.27614 10.2 4 10.2C3.72386 10.2 3.5 9.97614 3.5 9.7C3.5 9.42385 3.72386 9.2 4 9.2C4.27614 9.2 4.5 9.42385 4.5 9.7ZM4 12.2C4.27614 12.2 4.5 11.9761 4.5 11.7C4.5 11.4239 4.27614 11.2 4 11.2C3.72386 11.2 3.5 11.4239 3.5 11.7C3.5 11.9761 3.72386 12.2 4 12.2ZM10.5 7.7C10.5 7.97614 10.2761 8.2 10 8.2C9.72386 8.2 9.5 7.97614 9.5 7.7C9.5 7.42385 9.72386 7.2 10 7.2C10.2761 7.2 10.5 7.42385 10.5 7.7ZM10 10.2C10.2761 10.2 10.5 9.97614 10.5 9.7C10.5 9.42385 10.2761 9.2 10 9.2C9.72386 9.2 9.5 9.42385 9.5 9.7C9.5 9.97614 9.72386 10.2 10 10.2ZM12.5 7.7C12.5 7.97614 12.2761 8.2 12 8.2C11.7239 8.2 11.5 7.97614 11.5 7.7C11.5 7.42385 11.7239 7.2 12 7.2C12.2761 7.2 12.5 7.42385 12.5 7.7ZM12 10.2C12.2761 10.2 12.5 9.97614 12.5 9.7C12.5 9.42385 12.2761 9.2 12 9.2C11.7239 9.2 11.5 9.42385 11.5 9.7C11.5 9.97614 11.7239 10.2 12 10.2ZM10.5 11.7C10.5 11.9761 10.2761 12.2 10 12.2C9.72386 12.2 9.5 11.9761 9.5 11.7C9.5 11.4239 9.72386 11.2 10 11.2C10.2761 11.2 10.5 11.4239 10.5 11.7Z" fill="black"/>
</svg>
