<svg width="16" height="16" viewBox="0 0 16 16" fill="none" xmlns="http://www.w3.org/2000/svg">
<path fill-rule="evenodd" clip-rule="evenodd" d="M12.1876 3C11.9115 3 11.6876 3.22386 11.6876 3.5V11C11.6876 11.2761 11.9115 11.5 12.1876 11.5H12.8921C13.1683 11.5 13.3921 11.2761 13.3921 11V3.5C13.3921 3.22386 13.1683 3 12.8921 3H12.1876ZM10.6876 3.5C10.6876 2.67157 11.3592 2 12.1876 2H12.8921C13.7205 2 14.3921 2.67157 14.3921 3.5V11C14.3921 11.8284 13.7205 12.5 12.8921 12.5H12.1876C11.3592 12.5 10.6876 11.8284 10.6876 11V3.5ZM2.67255 6.20451C2.67255 5.92837 2.89641 5.70451 3.17255 5.70451H3.87707C4.15321 5.70451 4.37707 5.92837 4.37707 6.20451V11C4.37707 11.2761 4.15321 11.5 3.87707 11.5H3.17255C2.89641 11.5 2.67255 11.2761 2.67255 11V6.20451ZM3.17255 4.70451C2.34412 4.70451 1.67255 5.37609 1.67255 6.20451V11C1.67255 11.8284 2.34412 12.5 3.17255 12.5H3.87707C4.70549 12.5 5.37707 11.8284 5.37707 11V6.20451C5.37707 5.37609 4.70549 4.70451 3.87707 4.70451H3.17255ZM7.1801 8.00753C7.1801 7.73139 7.40396 7.50753 7.6801 7.50753H8.38462C8.66076 7.50753 8.88462 7.73139 8.88462 8.00753V11C8.88462 11.2761 8.66076 11.5 8.38462 11.5H7.6801C7.40396 11.5 7.1801 11.2761 7.1801 11V8.00753ZM7.6801 6.50753C6.85167 6.50753 6.1801 7.1791 6.1801 8.00753V11C6.1801 11.8284 6.85168 12.5 7.6801 12.5H8.38462C9.21305 12.5 9.88462 11.8284 9.88462 11V8.00753C9.88462 7.1791 9.21305 6.50753 8.38462 6.50753H7.6801ZM1.19995 13.1057C0.923809 13.1057 0.699951 13.3296 0.699951 13.6057C0.699951 13.8818 0.923809 14.1057 1.19995 14.1057H14.7645C15.0406 14.1057 15.2645 13.8818 15.2645 13.6057C15.2645 13.3296 15.0406 13.1057 14.7645 13.1057H1.19995Z" fill="black"/>
</svg>
