<svg width="16" height="16" viewBox="0 0 16 16" fill="none" xmlns="http://www.w3.org/2000/svg">
<path fill-rule="evenodd" clip-rule="evenodd" d="M7.998 1.47501C4.39551 1.47501 1.4751 4.39541 1.4751 7.99791C1.4751 11.6004 4.3955 14.5208 7.998 14.5208C11.6005 14.5208 14.5209 11.6004 14.5209 7.99791C14.5209 4.39541 11.6005 1.47501 7.998 1.47501ZM2.4751 7.99791C2.4751 4.9477 4.94779 2.47501 7.998 2.47501C11.0482 2.47501 13.5209 4.9477 13.5209 7.99791C13.5209 11.0481 11.0482 13.5208 7.998 13.5208C4.94779 13.5208 2.4751 11.0481 2.4751 7.99791ZM7.07752 5.58397C6.92409 5.48169 6.72682 5.47215 6.56424 5.55916C6.40166 5.64617 6.30017 5.8156 6.30017 6V10C6.30017 10.1844 6.40166 10.3538 6.56424 10.4408C6.72682 10.5278 6.92409 10.5183 7.07752 10.416L10.0775 8.41603C10.2166 8.32329 10.3002 8.16718 10.3002 8C10.3002 7.83282 10.2166 7.67671 10.0775 7.58397L7.07752 5.58397ZM8.89878 8L7.30017 9.06574V6.93426L8.89878 8Z" fill="black"/>
</svg>
