<svg width="16" height="16" viewBox="0 0 16 16" fill="none" xmlns="http://www.w3.org/2000/svg">
<path fill-rule="evenodd" clip-rule="evenodd" d="M14.0209 7.99791C14.0209 11.3242 11.3243 14.0208 7.998 14.0208C4.67165 14.0208 1.9751 11.3242 1.9751 7.99791C1.9751 4.67156 4.67165 1.97501 7.998 1.97501C11.3243 1.97501 14.0209 4.67156 14.0209 7.99791ZM7.95721 4.40001C7.58066 4.40001 7.28127 4.71609 7.30168 5.09209L7.51427 9.00818C7.52806 9.26231 7.73815 9.4613 7.99266 9.4613C8.25051 9.4613 8.46211 9.25722 8.47143 8.99953L8.61327 5.08025C8.62672 4.70861 8.32909 4.40001 7.95721 4.40001ZM7.987 11.5637C8.36636 11.5637 8.67389 11.2549 8.67389 10.874C8.67389 10.4931 8.36636 10.1843 7.987 10.1843C7.60764 10.1843 7.30011 10.4931 7.30011 10.874C7.30011 11.2549 7.60764 11.5637 7.987 11.5637Z" fill="black"/>
<path d="M7.998 14.0208C11.3243 14.0208 14.0209 11.3242 14.0209 7.99791C14.0209 4.67156 11.3243 1.97501 7.998 1.97501C4.67165 1.97501 1.9751 4.67156 1.9751 7.99791C1.9751 11.3242 4.67165 14.0208 7.998 14.0208Z" stroke="black"/>
</svg>
