<svg width="16" height="16" viewBox="0 0 16 16" fill="none" xmlns="http://www.w3.org/2000/svg">
<path fill-rule="evenodd" clip-rule="evenodd" d="M7.998 1.475C4.39551 1.475 1.4751 4.39541 1.4751 7.9979C1.4751 11.6004 4.3955 14.5208 7.998 14.5208C11.6005 14.5208 14.5209 11.6004 14.5209 7.9979C14.5209 4.39541 11.6005 1.475 7.998 1.475ZM2.4751 7.9979C2.4751 4.94769 4.94779 2.475 7.998 2.475C11.0482 2.475 13.5209 4.94769 13.5209 7.9979C13.5209 11.0481 11.0482 13.5208 7.998 13.5208C4.94779 13.5208 2.4751 11.0481 2.4751 7.9979ZM7.34306 5.27819C7.14567 5.44612 7.0001 5.70315 7.0001 6.08943C7.0001 6.36558 6.77624 6.58943 6.5001 6.58943C6.22396 6.58943 6.0001 6.36558 6.0001 6.08943C6.0001 5.41609 6.26971 4.87841 6.69509 4.51653C7.10969 4.16381 7.64487 4 8.16082 4C8.67677 4 9.21195 4.16381 9.62655 4.51653C10.0519 4.87841 10.3215 5.41609 10.3215 6.08943C10.3215 6.59881 10.1497 6.98443 9.88162 7.282C9.63777 7.55264 9.3247 7.73523 9.08727 7.8737L9.07704 7.87967C8.81104 8.03484 8.63104 8.14196 8.50324 8.27702C8.39951 8.38664 8.32868 8.51744 8.32868 8.74659V9.28449C8.32868 9.56064 8.10482 9.78449 7.82868 9.78449C7.55253 9.78449 7.32868 9.56064 7.32868 9.28449V8.74659C7.32868 8.24825 7.50695 7.87496 7.77689 7.5897C8.00963 7.34374 8.30722 7.17062 8.5353 7.03794L8.57317 7.01589C8.83278 6.86445 9.0124 6.7528 9.13869 6.61262C9.24425 6.49547 9.32154 6.34723 9.32154 6.08943C9.32154 5.70315 9.17597 5.44612 8.97858 5.27819C8.77041 5.10109 8.47523 5 8.16082 5C7.84641 5 7.55123 5.10109 7.34306 5.27819ZM8.49297 11.01C8.49297 11.3769 8.19555 11.6743 7.82868 11.6743C7.4618 11.6743 7.16439 11.3769 7.16439 11.01C7.16439 10.6431 7.4618 10.3457 7.82868 10.3457C8.19555 10.3457 8.49297 10.6431 8.49297 11.01Z" fill="black"/>
</svg>
