<svg width="16" height="16" viewBox="0 0 16 16" fill="none" xmlns="http://www.w3.org/2000/svg">
<path fill-rule="evenodd" clip-rule="evenodd" d="M7.998 1.47501C4.39551 1.47501 1.4751 4.39541 1.4751 7.99791C1.4751 11.6004 4.3955 14.5208 7.998 14.5208C11.6005 14.5208 14.5209 11.6004 14.5209 7.99791C14.5209 4.39541 11.6005 1.47501 7.998 1.47501ZM2.4751 7.99791C2.4751 4.9477 4.94779 2.47501 7.998 2.47501C11.0482 2.47501 13.5209 4.9477 13.5209 7.99791C13.5209 11.0481 11.0482 13.5208 7.998 13.5208C4.94779 13.5208 2.4751 11.0481 2.4751 7.99791ZM7.95719 4.70001C7.58063 4.70001 7.28125 4.71609 7.30166 5.09209L7.51424 9.00817C7.52804 9.2623 7.73813 9.4613 7.99263 9.4613C8.25048 9.4613 8.46208 9.25722 8.47141 8.99953L8.61325 5.08024C8.6267 4.70861 8.32907 4.70001 7.95719 4.70001ZM7.98698 11.5637C8.36633 11.5637 8.67386 11.2549 8.67386 10.874C8.67386 10.4931 8.36633 10.1843 7.98698 10.1843C7.60762 10.1843 7.30009 10.4931 7.30009 10.874C7.30009 11.2549 7.60762 11.5637 7.98698 11.5637Z" fill="black"/>
</svg>
