<svg width="16" height="16" viewBox="0 0 16 16" fill="none" xmlns="http://www.w3.org/2000/svg">
<path fill-rule="evenodd" clip-rule="evenodd" d="M5.5 2.5C5.5 2.22386 5.72386 2 6 2H10C10.2761 2 10.5 2.22386 10.5 2.5C10.5 2.77614 10.2761 3 10 3H6C5.72386 3 5.5 2.77614 5.5 2.5ZM4.6925 3.23568C4.27605 3.50222 4 3.96887 4 4.5V12.5C4 13.3284 4.67157 14 5.5 14H10.5C11.3284 14 12 13.3284 12 12.5V4.5C12 3.96887 11.724 3.50222 11.3075 3.23569C11.0502 3.69192 10.5611 4 10 4H6C5.4389 4 4.94975 3.69192 4.6925 3.23568ZM11.4689 2.19469C11.3279 1.51267 10.7238 1 10 1H6C5.27619 1 4.67212 1.51266 4.53109 2.19469C3.63157 2.57321 3 3.46285 3 4.5V12.5C3 13.8807 4.11929 15 5.5 15H10.5C11.8807 15 13 13.8807 13 12.5V4.5C13 3.46285 12.3684 2.57321 11.4689 2.19469ZM6.30005 6.5C6.30005 6.22386 6.52391 6 6.80005 6H10.8C11.0762 6 11.3 6.22386 11.3 6.5C11.3 6.77614 11.0762 7 10.8 7H6.80005C6.52391 7 6.30005 6.77614 6.30005 6.5ZM6.80005 8.5C6.52391 8.5 6.30005 8.72386 6.30005 9C6.30005 9.27614 6.52391 9.5 6.80005 9.5H10.8C11.0762 9.5 11.3 9.27614 11.3 9C11.3 8.72386 11.0762 8.5 10.8 8.5H6.80005ZM6.30005 11.5C6.30005 11.2239 6.52391 11 6.80005 11H10.8C11.0762 11 11.3 11.2239 11.3 11.5C11.3 11.7761 11.0762 12 10.8 12H6.80005C6.52391 12 6.30005 11.7761 6.30005 11.5ZM5.30005 6C5.02391 6 4.80005 6.22386 4.80005 6.5C4.80005 6.77614 5.02391 7 5.30005 7C5.57619 7 5.80005 6.77614 5.80005 6.5C5.80005 6.22386 5.57619 6 5.30005 6ZM4.80005 9C4.80005 8.72386 5.02391 8.5 5.30005 8.5C5.57619 8.5 5.80005 8.72386 5.80005 9C5.80005 9.27614 5.57619 9.5 5.30005 9.5C5.02391 9.5 4.80005 9.27614 4.80005 9ZM5.30005 11C5.02391 11 4.80005 11.2239 4.80005 11.5C4.80005 11.7761 5.02391 12 5.30005 12C5.57619 12 5.80005 11.7761 5.80005 11.5C5.80005 11.2239 5.57619 11 5.30005 11Z" fill="black"/>
</svg>
