<svg width="16" height="16" viewBox="0 0 16 16" fill="none" xmlns="http://www.w3.org/2000/svg">
<path fill-rule="evenodd" clip-rule="evenodd" d="M5 2.5C4.17157 2.5 3.5 3.17157 3.5 4V12C3.5 12.8284 4.17157 13.5 5 13.5H11C11.8284 13.5 12.5 12.8284 12.5 12V5.86992C12.5 5.75057 12.4573 5.63515 12.3796 5.54453L9.91969 2.6746C9.8247 2.56378 9.68603 2.5 9.54007 2.5H5ZM2.5 4C2.5 2.61929 3.61929 1.5 5 1.5H9.54007C9.97795 1.5 10.394 1.69134 10.6789 2.02381L13.1389 4.89374C13.3719 5.1656 13.5 5.51186 13.5 5.86992V12C13.5 13.3807 12.3807 14.5 11 14.5H5C3.61929 14.5 2.5 13.3807 2.5 12V4ZM4.64475 9.34542C4.45087 9.14966 4.45188 8.83395 4.64702 8.63944L6.64702 6.64588C6.84259 6.45093 7.15918 6.45144 7.35412 6.64702C7.54907 6.84259 7.54856 7.15917 7.35298 7.35412L5.70598 8.99583L7.34249 10.6481C7.53681 10.8443 7.53529 11.1609 7.33909 11.3552C7.1429 11.5496 6.82632 11.548 6.632 11.3519L4.64475 9.34542ZM11.353 8.63944C11.5481 8.83395 11.5491 9.14966 11.3552 9.34542L9.368 11.3519C9.17368 11.548 8.8571 11.5496 8.66091 11.3552C8.46471 11.1609 8.46319 10.8443 8.65751 10.6481L10.294 8.99583L8.64702 7.35412C8.45144 7.15917 8.45093 6.84259 8.64588 6.64702C8.84082 6.45144 9.15741 6.45093 9.35298 6.64588L11.353 8.63944Z" fill="black"/>
</svg>
