<svg width="16" height="16" viewBox="0 0 16 16" fill="none" xmlns="http://www.w3.org/2000/svg">
<path fill-rule="evenodd" clip-rule="evenodd" d="M10.4161 2.33278C10.5034 2.07081 10.3618 1.78765 10.0999 1.70032C9.83789 1.613 9.55473 1.75458 9.4674 2.01655L5.58384 13.6672C5.49652 13.9292 5.6381 14.2124 5.90007 14.2997C6.16204 14.387 6.4452 14.2454 6.53253 13.9835L10.4161 2.33278ZM1.1721 8.34352C0.978213 8.14776 0.979226 7.83205 1.17436 7.63755L3.7634 5.05684C3.95898 4.86189 4.27556 4.8624 4.47051 5.05797C4.66545 5.25355 4.66494 5.57013 4.46937 5.76508L2.23332 7.99393L4.45512 10.2372C4.64944 10.4334 4.64792 10.75 4.45172 10.9443C4.25552 11.1386 3.93895 11.1371 3.74462 10.9409L1.1721 8.34352ZM14.8278 8.34352C15.0217 8.14776 15.0206 7.83205 14.8255 7.63755L12.2365 5.05684C12.0409 4.86189 11.7243 4.8624 11.5294 5.05797C11.3344 5.25355 11.3349 5.57013 11.5305 5.76508L13.7665 7.99393L11.5448 10.2372C11.3504 10.4334 11.3519 10.75 11.5481 10.9443C11.7443 11.1386 12.0609 11.1371 12.2552 10.9409L14.8278 8.34352Z" fill="black"/>
</svg>
