<svg width="16" height="16" viewBox="0 0 16 16" fill="none" xmlns="http://www.w3.org/2000/svg">
<g clip-path="url(#clip0_517_1401)">
<path fill-rule="evenodd" clip-rule="evenodd" d="M3.6384 10.2242L1.41421 8L3.6384 5.77581L5.86259 8L3.6384 10.2242ZM0.707107 8.70711L2.9313 10.9313C3.32182 11.3218 3.95499 11.3218 4.34551 10.9313L6.5697 8.70711C6.96023 8.31658 6.96023 7.68342 6.5697 7.29289L4.34551 5.0687C3.95499 4.67818 3.32182 4.67818 2.9313 5.0687L0.707107 7.29289C0.316583 7.68342 0.316582 8.31658 0.707107 8.70711ZM8.03537 14.6211L5.81118 12.397L8.03537 10.1728L10.2596 12.397L8.03537 14.6211ZM5.10407 13.1041L7.32826 15.3282C7.71879 15.7188 8.35195 15.7188 8.74248 15.3283L10.9667 13.1041C11.3572 12.7135 11.3572 12.0804 10.9667 11.6898L8.74248 9.46566C8.35196 9.07513 7.71879 9.07513 7.32827 9.46565L5.10407 11.6898C4.71355 12.0804 4.71355 12.7135 5.10407 13.1041ZM5.81118 3.60305L8.03537 5.82724L10.2596 3.60305L8.03537 1.37886L5.81118 3.60305ZM7.32826 6.53434L5.10407 4.31015C4.71355 3.91963 4.71355 3.28646 5.10407 2.89594L7.32827 0.671749C7.71879 0.281225 8.35196 0.281226 8.74248 0.67175L10.9667 2.89594C11.3572 3.28647 11.3572 3.91963 10.9667 4.31015L8.74248 6.53435C8.35195 6.92487 7.71879 6.92487 7.32826 6.53434ZM12.4323 10.2242L10.2081 8L12.4323 5.77581L14.6565 8L12.4323 10.2242ZM9.50104 8.70711L11.7252 10.9313C12.1158 11.3218 12.7489 11.3218 13.1394 10.9313L15.3636 8.70711C15.7542 8.31658 15.7542 7.68342 15.3636 7.29289L13.1394 5.0687C12.7489 4.67818 12.1158 4.67818 11.7252 5.0687L9.50104 7.29289C9.11052 7.68342 9.11052 8.31658 9.50104 8.70711Z" fill="black"/>
</g>
<defs>
<clipPath id="clip0_517_1401">
<rect width="16" height="16" fill="white"/>
</clipPath>
</defs>
</svg>
