<svg width="16" height="16" viewBox="0 0 16 16" fill="none" xmlns="http://www.w3.org/2000/svg">
<path fill-rule="evenodd" clip-rule="evenodd" d="M1.4751 7.99791C1.4751 4.39541 4.39551 1.47501 7.998 1.47501C11.6005 1.47501 14.5209 4.39541 14.5209 7.99791C14.5209 11.6004 11.6005 14.5208 7.998 14.5208C4.3955 14.5208 1.4751 11.6004 1.4751 7.99791ZM11.2545 5.43362C11.3759 5.23643 11.346 4.98173 11.1822 4.81801C11.0185 4.6543 10.7638 4.62439 10.5666 4.74574L6.88969 7.00848C6.81963 7.05159 6.76129 7.11132 6.71984 7.18237L4.73994 10.5765C4.6255 10.7727 4.65767 11.0214 4.81828 11.182C4.97889 11.3426 5.22758 11.3748 5.42377 11.2603L8.81788 9.28041C8.88894 9.23897 8.94867 9.18063 8.99178 9.11057L11.2545 5.43362ZM8.52343 8.52316C8.23053 8.81605 7.75566 8.81605 7.46277 8.52316C7.16987 8.23027 7.16987 7.75539 7.46277 7.4625C7.75566 7.16961 8.23053 7.16961 8.52343 7.4625C8.81632 7.75539 8.81632 8.23027 8.52343 8.52316Z" fill="black"/>
</svg>
