<svg width="16" height="16" viewBox="0 0 16 16" fill="none" xmlns="http://www.w3.org/2000/svg">
<path fill-rule="evenodd" clip-rule="evenodd" d="M14.8536 1.85355C15.0488 1.65829 15.0488 1.34171 14.8536 1.14645C14.6583 0.951184 14.3417 0.951184 14.1464 1.14645L1.14645 14.1464C0.951184 14.3417 0.951184 14.6583 1.14645 14.8536C1.34171 15.0488 1.65829 15.0488 1.85355 14.8536L14.8536 1.85355ZM9.83887 1.98959L10.864 3.01471L10.1569 3.72182L9.13176 2.69669C8.54597 2.11091 7.59623 2.11091 7.01044 2.69669L2.7678 6.93933C2.18201 7.52512 2.18201 8.47487 2.7678 9.06065L3.79292 10.0858L3.08582 10.7929L2.06069 9.76776C1.08438 8.79145 1.08438 7.20854 2.06069 6.23223L6.30333 1.98959C7.27964 1.01328 8.86256 1.01328 9.83887 1.98959ZM12.2782 5.84314L12.9853 5.13603L14.0815 6.23223C15.0578 7.20854 15.0578 8.79145 14.0815 9.76776L9.83886 14.0104C8.86255 14.9867 7.27964 14.9867 6.30333 14.0104L5.20714 12.9142L5.91424 12.2071L7.01044 13.3033C7.59622 13.8891 8.54597 13.8891 9.13176 13.3033L13.3744 9.06065C13.9602 8.47487 13.9602 7.52512 13.3744 6.93933L12.2782 5.84314Z" fill="black"/>
</svg>
