<svg width="16" height="16" viewBox="0 0 16 16" fill="none" xmlns="http://www.w3.org/2000/svg">
<path fill-rule="evenodd" clip-rule="evenodd" d="M9.04765 0.932843C8.38291 0.626041 7.61709 0.626041 6.95235 0.932843L2.45236 3.00977C1.56698 3.4184 1 4.30454 1 5.27966V10.7203C1 11.6955 1.56698 12.5816 2.45236 12.9902L6.95235 15.0672C7.61709 15.374 8.38291 15.374 9.04765 15.0672L13.5476 12.9902C14.433 12.5816 15 11.6955 15 10.7203V5.27966C15 4.30454 14.433 3.4184 13.5476 3.00977L9.04765 0.932843ZM7.37141 1.8408C7.77026 1.65672 8.22975 1.65672 8.62859 1.8408L13.1286 3.91773C13.6598 4.16291 14 4.69459 14 5.27966V10.7203C14 11.3054 13.6598 11.8371 13.1286 12.0823L8.62859 14.1592C8.22975 14.3433 7.77026 14.3433 7.37141 14.1592L2.87141 12.0823C2.34019 11.8371 2 11.3054 2 10.7203V5.27966C2 4.69459 2.34019 4.16291 2.87141 3.91773L7.37141 1.8408ZM4.17556 5.03184C3.917 4.93488 3.6288 5.06588 3.53184 5.32444C3.43488 5.583 3.56588 5.8712 3.82444 5.96816L7.5 7.3465V12.5C7.5 12.7761 7.72386 13 8 13C8.27614 13 8.5 12.7761 8.5 12.5V7.3465L12.1756 5.96816C12.4341 5.8712 12.5651 5.583 12.4682 5.32444C12.3712 5.06588 12.083 4.93488 11.8244 5.03184L8 6.466L4.17556 5.03184Z" fill="black"/>
</svg>
