<svg width="16" height="16" viewBox="0 0 16 16" fill="none" xmlns="http://www.w3.org/2000/svg">
<path d="M12 2L3.5 13.5" stroke="black" stroke-linecap="round" stroke-linejoin="round"/>
<path fill-rule="evenodd" clip-rule="evenodd" d="M9.01779 3.56677C8.68834 3.52332 8.34893 3.5 8.00008 3.5C4.63598 3.5 2.1496 5.66912 1.00255 7.13226C0.594583 7.65265 0.630716 8.37558 1.05983 8.86074C1.61553 9.48902 2.41227 10.243 3.37593 10.9012L3.9867 10.1072C3.08164 9.49602 2.32864 8.78587 1.80888 8.19822C1.69047 8.06435 1.68762 7.87923 1.78954 7.74923C2.84309 6.40536 5.07101 4.5 8.00008 4.5C8.09918 4.5 8.19748 4.50218 8.29496 4.50645L9.01779 3.56677ZM6.80162 11.3682C7.19423 11.4531 7.59484 11.5 8.00008 11.5C9.28727 11.5 10.5279 11.0268 11.613 10.3645C12.6967 9.7032 13.5966 8.87055 14.1913 8.19822C14.3097 8.06435 14.3125 7.87923 14.2106 7.74923C13.618 6.99328 12.6538 6.05967 11.4022 5.38747L12.0193 4.58521C13.3575 5.33563 14.3749 6.33797 14.9976 7.13226C15.4056 7.65265 15.3694 8.37558 14.9403 8.86074C14.2929 9.59269 13.3184 10.4953 12.1339 11.2181C10.9509 11.9401 9.52969 12.5 8.00008 12.5C7.3566 12.5 6.7323 12.4009 6.13685 12.2324L6.80162 11.3682Z" fill="black"/>
</svg>
