<svg width="16" height="16" viewBox="0 0 16 16" fill="none" xmlns="http://www.w3.org/2000/svg">
<path fill-rule="evenodd" clip-rule="evenodd" d="M13.5 3C14.3284 3 15 3.67157 15 4.5V11.5C15 11.6524 14.9773 11.7995 14.935 11.9382L13.4598 8.10255C13.0884 7.13707 12.1608 6.5 11.1264 6.5H3V6.15289C3 5.32447 3.67157 4.65289 4.5 4.65289H8.16745C8.78028 4.65289 9.37176 4.4278 9.82954 4.02037L10.8339 3.12651C10.9254 3.04502 11.0437 3 11.1663 3H13.5ZM13.6051 12.9964C13.5704 12.9988 13.5353 13 13.5 13H5.19459C4.64276 13 4.1355 12.697 3.87388 12.2112L1.73398 8.23705C1.55461 7.90393 1.79588 7.5 2.17422 7.5H2.5H11.1264C11.7471 7.5 12.3036 7.88224 12.5264 8.46153L14.0106 12.3205C14.1291 12.6286 13.9222 12.9584 13.6051 12.9964ZM13.544 14C13.5974 14 13.65 13.9973 13.7016 13.992C14.988 13.8893 16 12.8128 16 11.5V4.5C16 3.11929 14.8807 2 13.5 2H11.1663C10.7986 2 10.4437 2.13506 10.169 2.37952L9.1647 3.27338C8.89004 3.51784 8.53515 3.65289 8.16745 3.65289H4.5C3.11929 3.65289 2 4.77218 2 6.15289V6.5097C0.967094 6.6259 0.343483 7.76396 0.853511 8.71115L2.99341 12.6853C3.42944 13.495 4.27488 14 5.19459 14H13.5H13.544Z" fill="black"/>
</svg>
