<svg width="16" height="16" viewBox="0 0 16 16" fill="none" xmlns="http://www.w3.org/2000/svg">
<path fill-rule="evenodd" clip-rule="evenodd" d="M3.7083 14.4996L3.7083 11.9998H1.5C1.22386 11.9998 1 11.7759 1 11.4998C1 11.2237 1.22386 10.9998 1.5 10.9998H3.7083L3.7083 4.9998H1.5C1.22386 4.9998 1 4.77595 1 4.4998C1 4.22366 1.22386 3.9998 1.5 3.9998H3.7083L3.7083 1.5C3.7083 1.22386 3.93215 1 4.2083 1C4.48444 1 4.7083 1.22386 4.7083 1.5L4.7083 3.9998H11.2914V1.5C11.2914 1.22386 11.5152 1 11.7914 1C12.0675 1 12.2914 1.22386 12.2914 1.5V3.9998H14.4996C14.7757 3.9998 14.9996 4.22366 14.9996 4.4998C14.9996 4.77595 14.7757 4.9998 14.4996 4.9998H12.2914L12.2914 10.9998H14.4996C14.7757 10.9998 14.9996 11.2237 14.9996 11.4998C14.9996 11.7759 14.7757 11.9998 14.4996 11.9998H12.2914V14.4996C12.2914 14.7757 12.0675 14.9996 11.7914 14.9996C11.5152 14.9996 11.2914 14.7757 11.2914 14.4996V11.9998H4.7083L4.7083 14.4996C4.7083 14.7757 4.48444 14.9996 4.2083 14.9996C3.93215 14.9996 3.7083 14.7757 3.7083 14.4996ZM11.2914 10.9998L11.2914 4.9998H4.7083L4.7083 10.9998H11.2914Z" fill="black"/>
</svg>
