<svg width="16" height="16" viewBox="0 0 16 16" fill="none" xmlns="http://www.w3.org/2000/svg">
<path d="M8.13008 7.65735C8.13008 7.5248 8.23753 7.41735 8.37008 7.41735H13.76C13.8925 7.41735 14 7.52258 14 7.65513C14 7.8113 14 7.98645 14 7.98645C14 7.98645 14 8.32249 14 8.50678C14 9.33062 13.8808 10.0623 13.6423 10.7019C13.4038 11.3415 13.0569 11.9052 12.6016 12.393C12.0813 12.9458 11.4526 13.3794 10.7154 13.6938C9.97832 13.9973 9.13821 14.1491 8.19512 14.1491C7.34959 14.1491 6.54743 13.9973 5.78862 13.6938C5.04065 13.3902 4.38482 12.9729 3.82114 12.4417C3.25745 11.8997 2.81301 11.2602 2.4878 10.523C2.1626 9.77507 2 8.95664 2 8.06775C2 7.17886 2.1626 6.36585 2.4878 5.62873C2.81301 4.88076 3.25745 4.24119 3.82114 3.71003C4.38482 3.16802 5.04065 2.74526 5.78862 2.44173C6.54743 2.13821 7.34959 1.98645 8.19512 1.98645C9.18157 1.98645 10.0379 2.15447 10.7642 2.49052C11.4293 2.7937 12.0193 3.19835 12.5344 3.70448C12.6276 3.79613 12.6244 3.94596 12.5311 4.03754L11.1453 5.3972C11.0513 5.4894 10.901 5.48814 10.8036 5.39964C10.474 5.10042 10.1249 4.86784 9.7561 4.7019C9.33333 4.49594 8.80217 4.39295 8.1626 4.39295C7.66396 4.39295 7.19241 4.4851 6.74797 4.66938C6.31436 4.84282 5.92954 5.09214 5.5935 5.41734C5.26829 5.73171 5.00813 6.11653 4.81301 6.57182C4.62873 7.01626 4.53659 7.51491 4.53659 8.06775C4.53659 8.6206 4.62873 9.12466 4.81301 9.57995C5.00813 10.0244 5.27371 10.4092 5.60976 10.7344C5.9458 11.0488 6.33604 11.2981 6.78049 11.4824C7.22493 11.6558 7.7019 11.7425 8.21138 11.7425C9.20867 11.7425 10.0054 11.477 10.6016 10.9458C10.7859 10.7832 10.9539 10.5827 11.1057 10.3442C11.2389 10.14 11.3502 9.9212 11.4398 9.68789C11.4691 9.61143 11.4114 9.53117 11.3294 9.53117H8.37008C8.23753 9.53117 8.13008 9.42371 8.13008 9.29117V7.65735Z" fill="black"/>
<path d="M8.13008 7.65735C8.13008 7.5248 8.23753 7.41735 8.37008 7.41735H13.76C13.8925 7.41735 14 7.52258 14 7.65513C14 7.8113 14 7.98645 14 7.98645C14 7.98645 14 8.32249 14 8.50678C14 9.33062 13.8808 10.0623 13.6423 10.7019C13.4038 11.3415 13.0569 11.9052 12.6016 12.393C12.0813 12.9458 11.4526 13.3794 10.7154 13.6938C9.97832 13.9973 9.13821 14.1491 8.19512 14.1491C7.34959 14.1491 6.54743 13.9973 5.78862 13.6938C5.04065 13.3902 4.38482 12.9729 3.82114 12.4417C3.25745 11.8997 2.81301 11.2602 2.4878 10.523C2.1626 9.77507 2 8.95664 2 8.06775C2 7.17886 2.1626 6.36585 2.4878 5.62873C2.81301 4.88076 3.25745 4.24119 3.82114 3.71003C4.38482 3.16802 5.04065 2.74526 5.78862 2.44173C6.54743 2.13821 7.34959 1.98645 8.19512 1.98645C9.18157 1.98645 10.0379 2.15447 10.7642 2.49052C11.4293 2.7937 12.0193 3.19835 12.5344 3.70448C12.6276 3.79613 12.6244 3.94596 12.5311 4.03754L11.1453 5.3972C11.0513 5.4894 10.901 5.48814 10.8036 5.39964C10.474 5.10042 10.1249 4.86784 9.7561 4.7019C9.33333 4.49594 8.80217 4.39295 8.1626 4.39295C7.66396 4.39295 7.19241 4.4851 6.74797 4.66938C6.31436 4.84282 5.92954 5.09214 5.5935 5.41734C5.26829 5.73171 5.00813 6.11653 4.81301 6.57182C4.62873 7.01626 4.53659 7.51491 4.53659 8.06775C4.53659 8.6206 4.62873 9.12466 4.81301 9.57995C5.00813 10.0244 5.27371 10.4092 5.60976 10.7344C5.9458 11.0488 6.33604 11.2981 6.78049 11.4824C7.22493 11.6558 7.7019 11.7425 8.21138 11.7425C9.20867 11.7425 10.0054 11.477 10.6016 10.9458C10.7859 10.7832 10.9539 10.5827 11.1057 10.3442C11.2389 10.14 11.3502 9.9212 11.4398 9.68789C11.4691 9.61143 11.4114 9.53117 11.3294 9.53117H8.37008C8.23753 9.53117 8.13008 9.42371 8.13008 9.29117V7.65735Z" fill="black"/>
</svg>
