<svg width="16" height="16" viewBox="0 0 16 16" fill="none" xmlns="http://www.w3.org/2000/svg">
<path fill-rule="evenodd" clip-rule="evenodd" d="M4.00196 2.58651L4.44775 2.36008L4.90061 3.25166L4.45482 3.47809C2.61695 4.4116 2.58368 7.18659 4.46944 8.22426L4.22839 9.16232C3.1227 9.16232 2.33846 9.74483 1.80989 10.526C1.27096 11.3224 1.03369 12.2803 1.03369 12.8848V13.3848H0.0336914V12.8848C0.0336914 12.0818 0.330097 10.9285 0.981684 9.96555C1.45418 9.26728 2.13107 8.6471 3.03323 8.3493C1.48568 6.64435 1.78482 3.71267 4.00196 2.58651ZM11.3985 2.36008L11.8442 2.58651C14.0614 3.71267 14.3605 6.64435 12.813 8.3493C13.7151 8.6471 14.392 9.26728 14.8645 9.96555C15.5161 10.9285 15.8125 12.0818 15.8125 12.8848V13.3848H14.8125V12.8848C14.8125 12.2803 14.5752 11.3224 14.0363 10.526C13.5077 9.74483 12.7235 9.16232 11.6178 9.16232L11.3768 8.22426C13.2625 7.18659 13.2293 4.4116 11.3914 3.47809L10.9456 3.25166L11.3985 2.36008ZM7.92305 2.5323C6.28656 2.5323 4.95992 3.85894 4.95992 5.49543C4.95992 7.13191 6.28656 8.45856 7.92305 8.45856C9.55953 8.45856 10.8862 7.13191 10.8862 5.49543C10.8862 3.85894 9.55953 2.5323 7.92305 2.5323ZM5.95992 5.49543C5.95992 4.41122 6.83884 3.5323 7.92305 3.5323C9.00725 3.5323 9.88618 4.41123 9.88618 5.49543C9.88618 6.57963 9.00725 7.45856 7.92305 7.45856C6.83884 7.45856 5.95992 6.57963 5.95992 5.49543ZM7.92306 9.92168C6.50204 9.92168 5.16046 10.2225 4.1584 10.9043C3.13333 11.6018 2.4968 12.6786 2.4968 14.1164H3.4968C3.4968 13.0173 3.96306 12.2468 4.72094 11.7311C5.50184 11.1998 6.62339 10.9217 7.92306 10.9217C9.22273 10.9217 10.3443 11.1998 11.1252 11.7311C11.8831 12.2468 12.3493 13.0173 12.3493 14.1164H13.3493C13.3493 12.6786 12.7128 11.6018 11.6877 10.9043C10.6857 10.2225 9.34408 9.92168 7.92306 9.92168Z" fill="black"/>
</svg>
