<svg width="16" height="16" viewBox="0 0 16 16" fill="none" xmlns="http://www.w3.org/2000/svg">
<path fill-rule="evenodd" clip-rule="evenodd" d="M13.5001 8.23864C13.5001 5.35892 11.2557 2.5 7.76149 2.5C5.32072 2.5 3.94756 4.06227 3.23671 5.20263H5.22543C5.50157 5.20263 5.72543 5.42649 5.72543 5.70263C5.72543 5.97878 5.50157 6.20263 5.22543 6.20263H2.38507C2.10893 6.20263 1.88507 5.97878 1.88507 5.70263V2.65939C1.88507 2.38325 2.10893 2.15939 2.38507 2.15939C2.66122 2.15939 2.88507 2.38325 2.88507 2.65939V3.96114C3.79826 2.78861 5.33424 1.5 7.76149 1.5C11.8784 1.5 14.5001 4.87972 14.5001 8.23864C14.5001 11.5976 11.8784 14.9773 7.76149 14.9773C5.79164 14.9773 4.15174 14.1979 2.98413 13.0099C2.35895 12.3737 1.87067 11.6222 1.53776 10.8133C1.43266 10.5579 1.55448 10.2657 1.80984 10.1606C2.0652 10.0555 2.35741 10.1773 2.4625 10.4327C2.74773 11.1257 3.16538 11.7676 3.69735 12.3089C4.68447 13.3133 6.07042 13.9773 7.76149 13.9773C11.2557 13.9773 13.5001 11.1184 13.5001 8.23864ZM8.40016 4.5C8.40016 4.22386 8.1763 4 7.90016 4C7.62401 4 7.40016 4.22386 7.40016 4.5V8.5C7.40016 8.77614 7.62401 9 7.90016 9H11.0001C11.2763 9 11.5001 8.77614 11.5001 8.5C11.5001 8.22386 11.2763 8 11.0001 8H8.40016V4.5Z" fill="black"/>
</svg>
