<svg width="16" height="16" viewBox="0 0 16 16" fill="none" xmlns="http://www.w3.org/2000/svg">
<path fill-rule="evenodd" clip-rule="evenodd" d="M7.5 2C7.5 1.72385 7.72386 1.5 8 1.5H9.5H11C11.2761 1.5 11.5 1.72385 11.5 2C11.5 2.27614 11.2761 2.5 11 2.5H10V13.5H11C11.2761 13.5 11.5 13.7239 11.5 14C11.5 14.2761 11.2761 14.5 11 14.5H9.5H8C7.72386 14.5 7.5 14.2761 7.5 14C7.5 13.7239 7.72386 13.5 8 13.5H9V2.5H8C7.72386 2.5 7.5 2.27614 7.5 2ZM1.5 5C1.5 4.72386 1.72386 4.5 2 4.5H7.5C7.77614 4.5 8 4.27614 8 4C8 3.72386 7.77614 3.5 7.5 3.5H2C1.17157 3.5 0.5 4.17157 0.5 5V11C0.5 11.8284 1.17157 12.5 2 12.5H7.5C7.77614 12.5 8 12.2761 8 12C8 11.7239 7.77614 11.5 7.5 11.5H2C1.72386 11.5 1.5 11.2761 1.5 11V5ZM11.5 3.5C11.2239 3.5 11 3.72386 11 4C11 4.27614 11.2239 4.5 11.5 4.5H14C14.2761 4.5 14.5 4.72386 14.5 5V11C14.5 11.2761 14.2761 11.5 14 11.5H11.5C11.2239 11.5 11 11.7239 11 12C11 12.2761 11.2239 12.5 11.5 12.5H14C14.8284 12.5 15.5 11.8284 15.5 11V5C15.5 4.17157 14.8284 3.5 14 3.5H11.5ZM6.79588 9.46503C6.89438 9.7232 6.70373 10 6.42741 10C6.26327 10 6.11628 9.89833 6.05838 9.74473L5.83121 9.14206H4.15177L3.92274 9.74965C3.86596 9.90028 3.7218 10 3.56082 10C3.29002 10 3.10306 9.7289 3.19928 9.47578L4.3511 6.44579C4.45312 6.17741 4.71037 6 4.99748 6C5.28428 6 5.54131 6.17703 5.64355 6.44499L6.79588 9.46503ZM4.98582 6.90808L4.41277 8.44568H5.56454L4.98582 6.90808Z" fill="black"/>
</svg>
