<svg width="16" height="16" viewBox="0 0 16 16" fill="none" xmlns="http://www.w3.org/2000/svg">
<path fill-rule="evenodd" clip-rule="evenodd" d="M2.5 3C2.5 2.72386 2.72386 2.5 3 2.5L13 2.5C13.2761 2.5 13.5 2.72386 13.5 3V13C13.5 13.2761 13.2761 13.5 13 13.5H3C2.72386 13.5 2.5 13.2761 2.5 13V3ZM3 1.5C2.17157 1.5 1.5 2.17157 1.5 3V13C1.5 13.8284 2.17157 14.5 3 14.5H13C13.8284 14.5 14.5 13.8284 14.5 13V3C14.5 2.17158 13.8284 1.5 13 1.5L3 1.5ZM9.49785 11.2951L8.87846 11.8205C9.2324 12.4173 10.0035 12.8 10.7809 12.8C11.7163 12.8 12.5 12.2357 12.5 11.3211C12.5 10.3347 11.6652 10.1434 10.944 9.97817L10.8883 9.96541C10.2753 9.8227 9.92763 9.73838 9.92763 9.32973C9.92763 8.96 10.2626 8.70703 10.7493 8.70703C11.2802 8.70703 11.6152 8.98595 11.868 9.38811L12.4621 8.8627C12.1587 8.37622 11.552 8 10.7746 8C9.85811 8 9.13759 8.55135 9.13759 9.41405C9.13759 10.3222 9.87075 10.5297 10.5533 10.6984C10.6176 10.7144 10.68 10.7295 10.7403 10.7441C11.3154 10.883 11.7036 10.9769 11.7036 11.4054C11.7036 11.853 11.3181 12.093 10.8062 12.093C10.2879 12.093 9.81387 11.8011 9.49785 11.2951ZM6.5 12.7222C6.71489 12.7611 6.87922 12.7741 7.10043 12.7741C8.0232 12.7741 8.54778 12.333 8.54778 11.4054V8.07135H7.73878V11.3405C7.73878 11.8595 7.49229 12.0346 7.00562 12.0346C6.8097 12.0346 6.71489 12.0216 6.5 11.9827V12.7222Z" fill="black"/>
</svg>
