<svg width="16" height="16" viewBox="0 0 16 16" fill="none" xmlns="http://www.w3.org/2000/svg">
<path fill-rule="evenodd" clip-rule="evenodd" d="M7.74817 1.06811C7.90385 0.977296 8.09636 0.977296 8.25204 1.06811L14.252 4.56811C14.4056 4.65772 14.5001 4.82217 14.5001 5C14.5001 5.17783 14.4056 5.34228 14.252 5.43189L8.25204 8.93189C8.09636 9.0227 7.90385 9.0227 7.74817 8.93189L1.74817 5.43189C1.59456 5.34228 1.5001 5.17783 1.5001 5C1.5001 4.82217 1.59456 4.65772 1.74817 4.56811L7.74817 1.06811ZM2.99242 5L8.0001 7.92115L13.0078 5L8.0001 2.07885L2.99242 5ZM1.56821 7.74806C1.70735 7.50954 2.01351 7.42897 2.25204 7.56811L8.0001 10.9211L13.7482 7.56811C13.9867 7.42897 14.2929 7.50954 14.432 7.74806C14.5711 7.98659 14.4906 8.29275 14.252 8.43189L8.25204 11.9319C8.09636 12.0227 7.90385 12.0227 7.74817 11.9319L1.74817 8.43189C1.50964 8.29275 1.42907 7.98659 1.56821 7.74806ZM2.25202 10.5681C2.01349 10.429 1.70733 10.5095 1.56819 10.7481C1.42905 10.9866 1.50962 11.2927 1.74815 11.4319L7.74815 14.9319C7.90383 15.0227 8.09634 15.0227 8.25202 14.9319L14.252 11.4319C14.4905 11.2927 14.5711 10.9866 14.432 10.7481C14.2928 10.5095 13.9867 10.429 13.7481 10.5681L8.00008 13.9211L2.25202 10.5681Z" fill="black"/>
</svg>
