<svg width="16" height="16" viewBox="0 0 16 16" fill="none" xmlns="http://www.w3.org/2000/svg">
<path fill-rule="evenodd" clip-rule="evenodd" d="M8.5 11.7613V4.67539C9.14871 3.91851 10.2884 3.5 11.4375 3.5C12.6097 3.5 13.5868 3.92856 14 4.62679V11.6206C13.8781 11.5451 13.7504 11.4781 13.6195 11.4192C12.9844 11.1329 12.2073 11 11.4375 11C10.6657 11 9.86596 11.1335 9.17947 11.4116C8.94257 11.5075 8.7127 11.6235 8.5 11.7613ZM4.75 2.5C5.92851 2.5 7.13816 2.90452 8.00337 3.74858C8.90373 2.8963 10.2208 2.5 11.4375 2.5C12.8371 2.5 14.3248 3.03162 14.9472 4.27639L15 4.38197V4.5V13C15 13.2525 14.8117 13.4654 14.5611 13.4963C14.3105 13.5271 14.0762 13.3662 14.0149 13.1213C13.9412 12.8263 13.6875 12.5467 13.2086 12.3308C12.7344 12.1171 12.1052 12 11.4375 12C10.7718 12 10.1028 12.1165 9.5549 12.3384C9.00064 12.5629 8.62276 12.8725 8.44721 13.2236H7.55279C7.37112 12.8603 7.01208 12.5534 6.50467 12.3339C5.99935 12.1154 5.38124 12 4.75 12C4.11876 12 3.50065 12.1154 2.99533 12.3339C2.48792 12.5534 2.12888 12.8603 1.94721 13.2236C1.84351 13.431 1.61081 13.5399 1.38512 13.4866C1.15944 13.4333 1 13.2319 1 13V4.5V4.33333L1.1 4.2C1.96381 3.04825 3.378 2.5 4.75 2.5Z" fill="black"/>
</svg>
