<svg width="16" height="16" viewBox="0 0 16 16" fill="none" xmlns="http://www.w3.org/2000/svg">
<path fill-rule="evenodd" clip-rule="evenodd" d="M8.68694 1.63621C8.23805 1.50795 7.76222 1.50795 7.31333 1.63621L2.31333 3.06478C1.24008 3.37142 0.500136 4.35239 0.500136 5.46859V6.44834C0.499954 6.45611 0.499955 6.46387 0.500136 6.4716V11.96C0.500136 13.3407 1.61942 14.46 3.00014 14.46H13.0001C14.3808 14.46 15.5001 13.3407 15.5001 11.96V6.47159C15.5003 6.46386 15.5003 6.45611 15.5001 6.44835V5.46859C15.5001 4.35239 14.7602 3.37142 13.6869 3.06478L8.68694 1.63621ZM14.5001 6.10762V5.46859C14.5001 4.79887 14.0562 4.21029 13.4122 4.0263L8.41222 2.59773C8.14289 2.52078 7.85739 2.52078 7.58805 2.59773L2.58806 4.0263C1.9441 4.21029 1.50014 4.79887 1.50014 5.46859V6.10762L7.49563 8.24887C7.82188 8.36539 8.1784 8.36539 8.50464 8.24887L14.5001 6.10762ZM1.50014 7.16949V11.96C1.50014 12.7884 2.17171 13.46 3.00014 13.46H13.0001C13.8286 13.46 14.5001 12.7884 14.5001 11.96V7.16949L8.84098 9.19062C8.29723 9.38481 7.70304 9.38481 7.15929 9.19062L1.50014 7.16949Z" fill="black"/>
</svg>
