<svg width="16" height="16" viewBox="0 0 16 16" fill="none" xmlns="http://www.w3.org/2000/svg">
<g clip-path="url(#clip0_517_1518)">
<path d="M1 15L15 0.5" stroke="black" stroke-linecap="round"/>
<path fill-rule="evenodd" clip-rule="evenodd" d="M8.00012 1C6.34327 1 5.00012 2.34314 5.00012 4V7C5.00012 7.65894 5.21257 8.26827 5.57271 8.76322L10.9394 3.39652C10.6601 2.02891 9.45027 1 8.00012 1ZM11.0001 6.16423L7.25708 9.90727C7.4947 9.96782 7.74365 10 8.00012 10C9.65698 10 11.0001 8.65685 11.0001 7V6.16423ZM4.47794 9.85799C4.07437 9.34704 3.8335 8.70165 3.8335 8.00001V7.49999C3.8335 7.22385 3.60964 6.99999 3.3335 6.99999C3.05735 6.99999 2.8335 7.22385 2.8335 7.49999V8.00001C2.8335 8.9779 3.18441 9.87383 3.76717 10.5687L4.47794 9.85799ZM5.42091 11.7434L6.2259 10.9384C6.42212 10.9788 6.62533 11 6.8335 11H8.00016H9.16683C10.8237 11 12.1668 9.65686 12.1668 8.00001V7.49999C12.1668 7.22385 12.3907 6.99999 12.6668 6.99999C12.943 6.99999 13.1668 7.22385 13.1668 7.49999V8.00001C13.1668 10.2091 11.376 12 9.16683 12H8.50016V13.5H10.0001C10.2763 13.5 10.5001 13.7239 10.5001 14C10.5001 14.2761 10.2763 14.5 10.0001 14.5H8.00016H6.00012C5.72398 14.5 5.50012 14.2761 5.50012 14C5.50012 13.7239 5.72398 13.5 6.00012 13.5H7.50016V12H6.8335C6.33622 12 5.86014 11.9093 5.42091 11.7434Z" fill="black"/>
</g>
<defs>
<clipPath id="clip0_517_1518">
<rect width="16" height="16" fill="white"/>
</clipPath>
</defs>
</svg>
