<svg width="16" height="16" viewBox="0 0 16 16" fill="none" xmlns="http://www.w3.org/2000/svg">
<path fill-rule="evenodd" clip-rule="evenodd" d="M4.99988 4C4.99988 2.34314 6.34303 1 7.99988 1C9.65673 1 10.9999 2.34315 10.9999 4V7C10.9999 8.65685 9.65673 10 7.99988 10C6.34302 10 4.99988 8.65685 4.99988 7V4ZM3.83325 7.49999C3.83325 7.22385 3.60939 6.99999 3.33325 6.99999C3.05711 6.99999 2.83325 7.22385 2.83325 7.49999V8.00001C2.83325 10.2091 4.62411 12 6.83325 12H7.49992V13.5H5.99988C5.72374 13.5 5.49988 13.7239 5.49988 14C5.49988 14.2761 5.72374 14.5 5.99988 14.5H7.99992H9.99988C10.276 14.5 10.4999 14.2761 10.4999 14C10.4999 13.7239 10.276 13.5 9.99988 13.5H8.49992V12H9.16659C11.3757 12 13.1666 10.2091 13.1666 8.00001V7.49999C13.1666 7.22385 12.9427 6.99999 12.6666 6.99999C12.3904 6.99999 12.1666 7.22385 12.1666 7.49999V8.00001C12.1666 9.65686 10.8234 11 9.16659 11H7.99992H6.83325C5.1764 11 3.83325 9.65686 3.83325 8.00001V7.49999Z" fill="black"/>
</svg>
