<svg width="16" height="16" viewBox="0 0 16 16" fill="none" xmlns="http://www.w3.org/2000/svg">
<path fill-rule="evenodd" clip-rule="evenodd" d="M0.5 5.5H7.55001C7.78165 6.64111 8.79052 7.5 10 7.5C11.2095 7.5 12.2184 6.64111 12.45 5.5H15.5C15.7761 5.5 16 5.27614 16 5C16 4.72386 15.7761 4.5 15.5 4.5H12.45C12.2184 3.35888 11.2095 2.5 10 2.5C8.79052 2.5 7.78164 3.35888 7.55001 4.5H0.5C0.223858 4.5 0 4.72386 0 5C0 5.27614 0.223858 5.5 0.5 5.5ZM10 3.5C9.17157 3.5 8.5 4.17157 8.5 5C8.5 5.82842 9.17158 6.5 10 6.5C10.8284 6.5 11.5 5.82842 11.5 5C11.5 4.17158 10.8284 3.5 10 3.5ZM0.5 11.5H3.55001C3.78165 12.6411 4.79052 13.5 6 13.5C7.20947 13.5 8.21835 12.6411 8.44999 11.5H15.5C15.7761 11.5 16 11.2761 16 11C16 10.7239 15.7761 10.5 15.5 10.5H8.44999C8.21835 9.35888 7.20947 8.5 6 8.5C4.79052 8.5 3.78164 9.35888 3.55001 10.5H0.5C0.223858 10.5 0 10.7239 0 11C0 11.2761 0.223858 11.5 0.5 11.5ZM6 9.5C5.17157 9.5 4.5 10.1716 4.5 11C4.5 11.8284 5.17158 12.5 6 12.5C6.82842 12.5 7.5 11.8284 7.5 11C7.5 10.1716 6.82842 9.5 6 9.5Z" fill="black"/>
</svg>
