<svg width="16" height="16" viewBox="0 0 16 16" fill="none" xmlns="http://www.w3.org/2000/svg">
<path fill-rule="evenodd" clip-rule="evenodd" d="M7.89979 6C7.89979 5.17157 8.57137 4.5 9.39979 4.5L13.4285 4.5C14.2569 4.5 14.9285 5.17157 14.9285 6V10.0287C14.9285 10.8571 14.2569 11.5287 13.4285 11.5287H9.39979C8.57136 11.5287 7.89979 10.8571 7.89979 10.0287V6ZM9.39979 3.5C8.01908 3.5 6.89979 4.61929 6.89979 6V10.0287C6.89979 11.4094 8.01908 12.5287 9.39979 12.5287H13.4285C14.8092 12.5287 15.9285 11.4094 15.9285 10.0287V6C15.9285 4.61929 14.8092 3.5 13.4285 3.5L9.39979 3.5ZM1.16506 5.14696C1.16506 4.87082 1.38892 4.64696 1.66506 4.64696H5.10594C5.38209 4.64696 5.60594 4.87082 5.60594 5.14696C5.60594 5.42311 5.38209 5.64696 5.10594 5.64696H1.66506C1.38892 5.64696 1.16506 5.42311 1.16506 5.14696ZM2.31193 7.44088C2.31193 7.16474 2.53579 6.94088 2.81193 6.94088H5.67933C5.95548 6.94088 6.17933 7.16474 6.17933 7.44088C6.17933 7.71702 5.95548 7.94088 5.67933 7.94088H2.81193C2.53579 7.94088 2.31193 7.71702 2.31193 7.44088ZM0.518066 9.23481C0.241924 9.23481 0.0180664 9.45866 0.0180664 9.73481C0.0180664 10.0109 0.241924 10.2348 0.518066 10.2348H5.67939C5.95553 10.2348 6.17939 10.0109 6.17939 9.73481C6.17939 9.45866 5.95553 9.23481 5.67939 9.23481H0.518066ZM2.31193 12.0287C2.31193 11.7526 2.53579 11.5287 2.81193 11.5287H5.67933C5.95548 11.5287 6.17933 11.7526 6.17933 12.0287C6.17933 12.3049 5.95548 12.5287 5.67933 12.5287H2.81193C2.53579 12.5287 2.31193 12.3049 2.31193 12.0287Z" fill="black"/>
</svg>
