<svg width="16" height="16" viewBox="0 0 16 16" fill="none" xmlns="http://www.w3.org/2000/svg">
<path fill-rule="evenodd" clip-rule="evenodd" d="M10.5031 1.8431L10.0462 1.64003L9.64007 2.55384L10.097 2.75691C11.2678 3.27727 11.8251 4.2741 11.8251 5.2625C11.8251 6.25302 11.2646 7.28068 10.0831 7.8495L10.3 8.8C11.7214 8.8 12.7086 9.45812 13.3545 10.2934C14.0148 11.1471 14.3 12.1655 14.3 12.8V13.3H15.3V12.8C15.3 11.9345 14.9353 10.7029 14.1456 9.68163C13.5614 8.92622 12.735 8.27524 11.6446 7.9757C12.4243 7.22912 12.8251 6.24889 12.8251 5.2625C12.8251 3.8759 12.0323 2.52273 10.5031 1.8431ZM3.30005 5.52394C3.30005 3.73525 4.77308 2.3 6.57176 2.3C8.37043 2.3 9.84347 3.73525 9.84347 5.52394C9.84347 7.31262 8.37043 8.74789 6.57176 8.74789C4.77307 8.74789 3.30005 7.31262 3.30005 5.52394ZM6.57176 3.3C5.3089 3.3 4.30005 4.30386 4.30005 5.52394C4.30005 6.74402 5.3089 7.74789 6.57176 7.74789C7.83461 7.74789 8.84347 6.74402 8.84347 5.52394C8.84347 4.30386 7.83461 3.3 6.57176 3.3ZM2.6356 10.8527C3.74043 10.1238 5.22306 9.8 6.80005 9.8C8.37702 9.8 9.85966 10.1238 10.9645 10.8527C12.093 11.5973 12.8 12.7505 12.8 14.3H11.8C11.8 13.103 11.2758 12.2562 10.4138 11.6874C9.52798 11.103 8.26061 10.8 6.80005 10.8C5.33947 10.8 4.07211 11.103 3.18632 11.6874C2.32426 12.2562 1.80005 13.103 1.80005 14.3H0.800049C0.800049 12.7505 1.50706 11.5973 2.6356 10.8527Z" fill="black"/>
</svg>
