<svg width="16" height="16" viewBox="0 0 16 16" fill="none" xmlns="http://www.w3.org/2000/svg">
<path fill-rule="evenodd" clip-rule="evenodd" d="M8.71715 1.62184C8.06092 0.713219 6.67627 0.81906 6.16576 1.81687L1.16582 11.5895C0.700593 12.4988 1.26046 13.597 2.26963 13.7547L9.75816 14.9248C10.158 14.9873 10.566 14.8856 10.8897 14.6428L14.4018 12.0087C15.0561 11.518 15.1967 10.5935 14.7178 9.93047L8.71715 1.62184ZM7.05601 2.27234C7.22618 1.93974 7.68773 1.90446 7.90647 2.20734L13.9071 10.516C14.0668 10.737 14.0199 11.0451 13.8018 11.2087L10.2897 13.8428C10.1818 13.9237 10.0458 13.9576 9.91254 13.9368L2.42401 12.7667C2.08762 12.7141 1.90099 12.3481 2.05607 12.0449L7.05601 2.27234ZM8.4217 4.53345C8.3596 4.26438 8.09114 4.09659 7.82207 4.15868C7.553 4.22077 7.38521 4.48924 7.44731 4.75831L9.18555 12.2907C9.24764 12.5598 9.51611 12.7276 9.78518 12.6655C10.0542 12.6034 10.222 12.3349 10.1599 12.0658L8.4217 4.53345Z" fill="black"/>
</svg>
