<svg width="16" height="16" viewBox="0 0 16 16" fill="none" xmlns="http://www.w3.org/2000/svg">
<path fill-rule="evenodd" clip-rule="evenodd" d="M4.10147 9.65147V10.7838C4.10147 11.06 3.87761 11.2838 3.60147 11.2838H2.79559C2.19706 11.2294 1 10.5003 1 8.01912C1 5.59707 2.14068 4.74087 2.7518 4.60021C2.78103 4.59348 2.81068 4.59118 2.84067 4.59118H7.77427C7.90949 4.59118 8.01912 4.48155 8.01912 4.34632V4.34632C8.01912 4.2111 7.90949 4.10147 7.77427 4.10147H5.09118C4.81503 4.10147 4.59118 3.87761 4.59118 3.60147V2.46912C4.59118 2.46311 4.59096 2.45554 4.59069 2.44656L4.59069 2.44653C4.5838 2.21137 4.5483 1 7.69265 1H8.01912C10.4676 1 11.2838 1.65294 11.2838 2.46912V6.06029C11.2838 7.23559 10.0868 7.63824 9.48824 7.69265H5.73382C4.42794 7.69265 4.10147 8.99853 4.10147 9.65147ZM6.64796 2.63235C6.64796 2.99296 6.35563 3.28529 5.99502 3.28529C5.63441 3.28529 5.34207 2.99296 5.34207 2.63235C5.34207 2.27174 5.63441 1.97941 5.99502 1.97941C6.35563 1.97941 6.64796 2.27174 6.64796 2.63235ZM11.7736 6.54999V5.09117C11.7736 4.81503 11.9974 4.59117 12.2736 4.59117H13.0795C13.678 4.64558 14.8751 5.3747 14.8751 7.85587C14.8751 10.2779 13.7344 11.1341 13.1233 11.2748C13.094 11.2815 13.0644 11.2838 13.0344 11.2838L8.1008 11.2838C7.96557 11.2838 7.85594 11.3934 7.85594 11.5287V11.5287C7.85594 11.6639 7.96557 11.7735 8.1008 11.7735L10.7839 11.7735C11.06 11.7735 11.2839 11.9974 11.2839 12.2735L11.2839 13.4059C11.2839 13.4119 11.2841 13.4195 11.2844 13.4285C11.2913 13.6636 11.3268 14.875 8.18241 14.875H7.85594C5.40741 14.875 4.59124 14.2221 4.59124 13.4059L4.59124 9.8147C4.59124 8.6394 5.46182 8.23676 6.06035 8.18235L9.81477 8.18235C11.1206 8.18235 11.7736 7.20293 11.7736 6.54999ZM9.2271 13.2426C9.2271 12.882 9.51943 12.5897 9.88004 12.5897C10.2407 12.5897 10.533 12.882 10.533 13.2426C10.533 13.6032 10.2407 13.8956 9.88004 13.8956C9.51943 13.8956 9.2271 13.6032 9.2271 13.2426Z" fill="black"/>
</svg>
