<svg width="16" height="16" viewBox="0 0 16 16" fill="none" xmlns="http://www.w3.org/2000/svg">
<path fill-rule="evenodd" clip-rule="evenodd" d="M6.39917 5.62189C6.39917 5.05812 6.61428 4.66797 6.91599 4.4113C7.22847 4.14546 7.66273 4 8.11623 4C8.56973 4 9.00399 4.14547 9.31647 4.41131C9.61818 4.66798 9.83329 5.05812 9.83329 5.62189C9.83329 6.00818 9.71427 6.24585 9.54613 6.43247C9.35724 6.64211 9.09418 6.80327 8.75112 7.00339L8.70474 7.0304L8.70474 7.0304C8.39683 7.20965 8.01887 7.42967 7.72534 7.73987C7.39282 8.09127 7.17282 8.54899 7.17282 9.16918V9.88729C7.17282 10.1634 7.39668 10.3873 7.67282 10.3873C7.94896 10.3873 8.17282 10.1634 8.17282 9.88729V9.16918C8.17282 8.81818 8.28538 8.60295 8.45169 8.42719C8.64208 8.22599 8.90553 8.07101 9.25499 7.86717L9.26132 7.86347C9.5823 7.67624 9.98113 7.4436 10.2891 7.10184C10.6197 6.73481 10.8333 6.25977 10.8333 5.62189C10.8333 4.77107 10.4941 4.10027 9.96444 3.64964C9.44553 3.20819 8.77126 3 8.11623 3C7.4612 3 6.78693 3.20818 6.26801 3.64964C5.73832 4.10027 5.39917 4.77107 5.39917 5.62189C5.39917 5.89803 5.62303 6.12189 5.89917 6.12189C6.17531 6.12189 6.39917 5.89803 6.39917 5.62189ZM7.64988 12.604C8.00886 12.604 8.29988 12.313 8.29988 11.954C8.29988 11.5951 8.00886 11.304 7.64988 11.304C7.29089 11.304 6.99988 11.5951 6.99988 11.954C6.99988 12.313 7.29089 12.604 7.64988 12.604Z" fill="black"/>
</svg>
