<svg width="16" height="16" viewBox="0 0 16 16" fill="none" xmlns="http://www.w3.org/2000/svg">
<path d="M10.7401 12.1774C11.0163 12.1774 11.2401 12.4012 11.2401 12.6774C11.2401 12.9535 11.0163 13.1774 10.7401 13.1774V12.1774ZM13.1873 4.61813H13.6873V5.61813H13.1873V4.61813ZM13.6697 5.11814L14.0279 4.76929C14.1217 4.86558 14.1727 4.99557 14.1695 5.12995C14.1664 5.26432 14.1092 5.39176 14.011 5.48351L13.6697 5.11814ZM11.4613 7.86539C11.2595 8.0539 10.9431 8.04313 10.7546 7.84134C10.5661 7.63955 10.5768 7.32315 10.7786 7.13464L11.4613 7.86539ZM10.7617 2.84885C10.569 2.65102 10.5732 2.33446 10.7711 2.1418C10.9689 1.94914 11.2854 1.95333 11.4781 2.15115L10.7617 2.84885ZM10.7401 13.1774H6.41844V12.1774H10.7401V13.1774ZM6.41844 13.1774C4.96832 13.1774 3.8401 12.6553 3.07681 11.8374C2.32038 11.0268 1.95033 9.95599 1.95033 8.89776C1.95033 7.83954 2.32038 6.76869 3.07681 5.95813C3.8401 5.14022 4.96832 4.61813 6.41844 4.61813V5.61813C5.22315 5.61813 4.36732 6.04095 3.8079 6.6404C3.24163 7.2472 2.95033 8.06617 2.95033 8.89776C2.95033 9.72935 3.24163 10.5483 3.8079 11.1551C4.36732 11.7546 5.22315 12.1774 6.41844 12.1774V13.1774ZM6.41844 4.61813H13.1873V5.61813H6.41844V4.61813ZM14.011 5.48351L11.4613 7.86539L10.7786 7.13464L13.3284 4.75276L14.011 5.48351ZM13.3115 5.46698L10.7617 2.84885L11.4781 2.15115L14.0279 4.76929L13.3115 5.46698Z" fill="black"/>
</svg>
