<svg width="16" height="16" viewBox="0 0 16 16" fill="none" xmlns="http://www.w3.org/2000/svg">
<path fill-rule="evenodd" clip-rule="evenodd" d="M13.4999 8.23864C13.4999 5.35892 11.2555 2.5 7.76124 2.5C5.32047 2.5 3.94732 4.06227 3.23647 5.20263H5.22519C5.50133 5.20263 5.72519 5.42649 5.72519 5.70263C5.72519 5.97878 5.50133 6.20263 5.22519 6.20263H2.38483C2.10869 6.20263 1.88483 5.97878 1.88483 5.70263V2.65939C1.88483 2.38325 2.10869 2.15939 2.38483 2.15939C2.66097 2.15939 2.88483 2.38325 2.88483 2.65939V3.96114C3.79801 2.78861 5.334 1.5 7.76124 1.5C11.8781 1.5 14.4999 4.87972 14.4999 8.23864C14.4999 11.5976 11.8781 14.9773 7.76124 14.9773C5.7914 14.9773 4.1515 14.1979 2.98389 13.0099C2.3587 12.3737 1.87042 11.6222 1.53751 10.8133C1.43242 10.5579 1.55423 10.2657 1.8096 10.1606C2.06496 10.0555 2.35717 10.1773 2.46226 10.4327C2.74749 11.1257 3.16513 11.7676 3.6971 12.3089C4.68423 13.3133 6.07018 13.9773 7.76124 13.9773C11.2555 13.9773 13.4999 11.1184 13.4999 8.23864ZM8.39991 6.5C8.39991 6.22386 8.17605 6 7.89991 6C7.62377 6 7.39991 6.22386 7.39991 6.5V10C7.39991 10.2761 7.62377 10.5 7.89991 10.5C8.17605 10.5 8.39991 10.2761 8.39991 10V6.5Z" fill="black"/>
</svg>
