<svg width="16" height="16" viewBox="0 0 16 16" fill="none" xmlns="http://www.w3.org/2000/svg">
<path fill-rule="evenodd" clip-rule="evenodd" d="M2 11.7386V4.67425C2.64621 3.90718 3.67909 3.5 4.75 3.5C5.82091 3.5 6.85379 3.90718 7.5 4.67425V11.7386C7.31204 11.6136 7.11046 11.5064 6.90158 11.4161C6.25065 11.1346 5.49376 11 4.75 11C4.00624 11 3.24935 11.1346 2.59842 11.4161C2.38954 11.5064 2.18796 11.6136 2 11.7386ZM4.75 2.5C5.92851 2.5 7.13816 2.90452 8.00337 3.74858C8.90373 2.8963 10.2208 2.5 11.4375 2.5C12.8371 2.5 14.3248 3.03162 14.9472 4.27639L15 4.38197V4.5V13C15 13.2525 14.8117 13.4654 14.5611 13.4963C14.3105 13.5271 14.0762 13.3662 14.0149 13.1213C13.9412 12.8263 13.6875 12.5467 13.2086 12.3308C12.7344 12.1171 12.1052 12 11.4375 12C10.7718 12 10.1028 12.1165 9.5549 12.3384C9.00064 12.5629 8.62276 12.8725 8.44721 13.2236H7.55279C7.37112 12.8603 7.01208 12.5534 6.50467 12.3339C5.99935 12.1154 5.38124 12 4.75 12C4.11876 12 3.50065 12.1154 2.99533 12.3339C2.48792 12.5534 2.12888 12.8603 1.94721 13.2236C1.84351 13.431 1.61081 13.5399 1.38512 13.4866C1.15944 13.4333 1 13.2319 1 13V4.5V4.33333L1.1 4.2C1.96381 3.04825 3.378 2.5 4.75 2.5Z" fill="black"/>
</svg>
