<svg width="16" height="16" viewBox="0 0 16 16" fill="none" xmlns="http://www.w3.org/2000/svg">
<path fill-rule="evenodd" clip-rule="evenodd" d="M7.5417 5.54191C6.52844 5.72964 5.72964 6.52844 5.54191 7.5417C7.04095 7.77471 8.22529 8.95904 8.4583 10.4581C9.47155 10.2704 10.2704 9.47155 10.4581 8.4583C8.95904 8.22529 7.77471 7.04095 7.5417 5.54191ZM11.4689 8.46887C11.2603 10.0268 10.0268 11.2603 8.46886 11.4689C8.23975 13.1802 6.774 14.5 5 14.5C3.067 14.5 1.5 12.933 1.5 11C1.5 9.22599 2.81984 7.76025 4.53113 7.53114C4.73971 5.9732 5.9732 4.73971 7.53113 4.53114C7.76025 2.81984 9.22599 1.5 11 1.5C12.933 1.5 14.5 3.067 14.5 5C14.5 6.774 13.1802 8.23975 11.4689 8.46887ZM8.54191 4.5417C8.75717 3.37987 9.77583 2.5 11 2.5C12.3807 2.5 13.5 3.61929 13.5 5C13.5 6.22415 12.6201 7.24283 11.4583 7.45808C11.2253 5.95904 10.041 4.77471 8.54191 4.5417ZM8.56385 5.56385C9.49179 5.77776 10.2222 6.50821 10.4362 7.43615C9.50821 7.22224 8.77776 6.49179 8.56385 5.56385ZM2.5 11C2.5 9.77583 3.37987 8.75717 4.5417 8.54192C4.77471 10.041 5.95904 11.2253 7.45808 11.4583C7.24283 12.6201 6.22415 13.5 5 13.5C3.61929 13.5 2.5 12.3807 2.5 11ZM7.43615 10.4362C7.22224 9.50821 6.49179 8.77776 5.56385 8.56385C5.77776 9.49179 6.50821 10.2222 7.43615 10.4362Z" fill="black"/>
</svg>
