<svg width="16" height="16" viewBox="0 0 16 16" fill="none" xmlns="http://www.w3.org/2000/svg">
<path fill-rule="evenodd" clip-rule="evenodd" d="M8.1581 2.81909C8.32432 2.9022 8.5199 2.78133 8.5199 2.59548V1.99999C10.5013 1.99999 11.7047 2.36369 12.4304 3.08946C13.1562 3.81522 13.5199 5.01861 13.5199 6.99999C13.5199 7.27613 13.7438 7.49999 14.0199 7.49999C14.296 7.49999 14.5199 7.27613 14.5199 6.99999C14.5199 4.94381 14.1524 3.39719 13.1375 2.38235C12.1227 1.36751 10.5761 0.999989 8.5199 0.999989V0.404497C8.5199 0.218652 8.32432 0.0977779 8.1581 0.180891L5.96711 1.27638C5.78285 1.36851 5.78285 1.63146 5.96711 1.7236L8.1581 2.81909ZM2 7.04672C2 6.2183 2.67157 5.54672 3.5 5.54672L9.5 5.54673C10.3284 5.54673 11 6.2183 11 7.04672V13.0467C11 13.8751 10.3284 14.5467 9.5 14.5467H3.5C2.67157 14.5467 2 13.8751 2 13.0467V7.04672ZM3.5 4.54672C2.11929 4.54672 1 5.66601 1 7.04672V13.0467C1 14.4274 2.11929 15.5467 3.5 15.5467H9.5C10.8807 15.5467 12 14.4274 12 13.0467V7.04672C12 5.66601 10.8807 4.54673 9.5 4.54673L3.5 4.54672Z" fill="black"/>
</svg>
