<svg width="16" height="16" viewBox="0 0 16 16" fill="none" xmlns="http://www.w3.org/2000/svg">
<path fill-rule="evenodd" clip-rule="evenodd" d="M2 4.5C2 4.22386 2.22386 4 2.5 4H9.5C9.77614 4 10 4.22386 10 4.5V6H7.5C6.67157 6 6 6.67157 6 7.5V10H2.5C2.22386 10 2 9.77614 2 9.5V4.5ZM11 4.5V6H13.5C14.3284 6 15 6.67157 15 7.5V11.5C15 12.3284 14.3284 13 13.5 13H7.5C6.67157 13 6 12.3284 6 11.5V11H2.5C1.67157 11 1 10.3284 1 9.5V4.5C1 3.67157 1.67157 3 2.5 3H9.5C10.3284 3 11 3.67157 11 4.5ZM2.65047 4.9827C2.64991 4.8956 2.68412 4.81187 2.74552 4.75007C2.80692 4.68828 2.89043 4.65353 2.97754 4.65353H3.93878C4.07088 4.65353 4.19001 4.73299 4.24075 4.85495C4.2915 4.97691 4.2639 5.11743 4.1708 5.21114L3.92151 5.46203L4.4367 5.97722C4.56443 6.10495 4.56443 6.31204 4.4367 6.43977C4.30897 6.5675 4.10188 6.5675 3.97415 6.43977L3.46045 5.92607L3.21572 6.17238C3.12262 6.26609 2.98228 6.29459 2.86 6.24463C2.73771 6.19466 2.65749 6.07604 2.65664 5.94395L2.65047 4.9827Z" fill="black"/>
</svg>
