<svg width="16" height="16" viewBox="0 0 16 16" fill="none" xmlns="http://www.w3.org/2000/svg">
<path d="M6.28037 2.53021C6.28037 2.23738 6.51775 2 6.81058 2H9.18964C9.48244 2 9.7198 2.23736 9.7198 2.53017C9.7198 3.70807 10.9949 4.44429 12.015 3.85533C12.2686 3.70893 12.5928 3.79581 12.7392 4.04938L13.9288 6.10972C14.0752 6.36329 13.9883 6.68758 13.7347 6.834C12.7146 7.42293 12.7145 8.89534 13.7346 9.48432C13.9882 9.63071 14.0751 9.95495 13.9287 10.2085L12.7391 12.2689C12.5927 12.5225 12.2685 12.6094 12.015 12.463C10.9949 11.874 9.7198 12.6103 9.7198 13.7881C9.7198 14.0809 9.48243 14.3183 9.18966 14.3183H6.81056C6.51774 14.3183 6.28037 14.0809 6.28037 13.7881C6.28037 12.6102 5.00521 11.874 3.98509 12.4629C3.7315 12.6093 3.40724 12.5224 3.26083 12.2689L2.07129 10.2085C1.92489 9.95495 2.01177 9.63071 2.26534 9.48432C3.28547 8.89534 3.28535 7.42293 2.26529 6.834C2.01168 6.68758 1.9248 6.36329 2.0712 6.10972L3.26069 4.04945C3.40711 3.79586 3.73141 3.70895 3.98503 3.85538C5.00514 4.44434 6.28037 3.70819 6.28037 2.53021ZM8.02589 10.8789C9.52795 10.8789 10.7456 9.66119 10.7456 8.15914C10.7456 6.65708 9.52795 5.43942 8.02589 5.43942C6.52384 5.43942 5.30618 6.65708 5.30618 8.15914C5.30618 9.66119 6.52384 10.8789 8.02589 10.8789Z" stroke="black"/>
</svg>
