<svg width="16" height="16" viewBox="0 0 16 16" fill="none" xmlns="http://www.w3.org/2000/svg">
<path fill-rule="evenodd" clip-rule="evenodd" d="M11.3 5.5C12.1285 5.5 12.8 4.82843 12.8 4C12.8 3.17157 12.1285 2.5 11.3 2.5C10.4716 2.5 9.80005 3.17157 9.80005 4C9.80005 4.82843 10.4716 5.5 11.3 5.5ZM11.3 6.5C12.6808 6.5 13.8 5.38071 13.8 4C13.8 2.61929 12.6808 1.5 11.3 1.5C9.91934 1.5 8.80005 2.61929 8.80005 4C8.80005 4.23265 8.83183 4.45788 8.89128 4.67158L6.24848 6.43346C5.79024 5.86423 5.08768 5.5 4.30005 5.5C2.91934 5.5 1.80005 6.61929 1.80005 8C1.80005 9.38071 2.91934 10.5 4.30005 10.5C5.08768 10.5 5.79024 10.1358 6.24848 9.56654L8.89128 11.3284C8.83183 11.5421 8.80005 11.7673 8.80005 12C8.80005 13.3807 9.91934 14.5 11.3 14.5C12.6808 14.5 13.8 13.3807 13.8 12C13.8 10.6193 12.6808 9.5 11.3 9.5C10.5124 9.5 9.80986 9.86423 9.35162 10.4335L6.70881 8.67159C6.76827 8.45788 6.80005 8.23265 6.80005 8C6.80005 7.76735 6.76827 7.54212 6.70881 7.32841L9.35162 5.56654C9.80986 6.13576 10.5124 6.5 11.3 6.5ZM11.3 13.5C12.1285 13.5 12.8 12.8284 12.8 12C12.8 11.1716 12.1285 10.5 11.3 10.5C10.4716 10.5 9.80005 11.1716 9.80005 12C9.80005 12.8284 10.4716 13.5 11.3 13.5ZM4.30005 9.5C5.12848 9.5 5.80005 8.82843 5.80005 8C5.80005 7.17157 5.12848 6.5 4.30005 6.5C3.47162 6.5 2.80005 7.17157 2.80005 8C2.80005 8.82843 3.47162 9.5 4.30005 9.5Z" fill="black"/>
</svg>
