<svg width="16" height="16" viewBox="0 0 16 16" fill="none" xmlns="http://www.w3.org/2000/svg">
<path fill-rule="evenodd" clip-rule="evenodd" d="M13.186 1.38229C12.9908 1.18703 12.6742 1.18703 12.4789 1.38229C12.2837 1.57756 12.2837 1.89414 12.4789 2.0894L13.6832 3.29367H13.3469C10.421 3.29367 8.97681 5.32521 7.63102 7.21834L7.63097 7.21841C7.53573 7.35239 7.44098 7.48568 7.34623 7.6175C6.60762 8.64513 5.85941 9.61513 4.87637 10.3355C3.90868 11.0447 2.69381 11.525 1 11.525C0.723858 11.525 0.5 11.7488 0.5 12.025C0.5 12.3011 0.723858 12.525 1 12.525C2.90738 12.525 4.3291 11.9763 5.46747 11.1421C6.59048 10.3192 7.41779 9.23133 8.15824 8.20114C8.23781 8.09043 8.31633 7.98063 8.39405 7.87196L8.39433 7.87157C9.80555 5.89819 10.953 4.29367 13.3469 4.29367H13.6832L12.4789 5.49794C12.2837 5.6932 12.2837 6.00979 12.4789 6.20505C12.6742 6.40031 12.9908 6.40031 13.186 6.20505L15.2439 4.14722C15.4391 3.95196 15.4391 3.63538 15.2439 3.44012L13.186 1.38229ZM5.40912 4.68095C6.03831 5.15656 6.56952 5.72102 7.04757 6.30996C6.9766 6.40977 6.90702 6.50833 6.83863 6.60519L6.83839 6.60553L6.83836 6.60557C6.73443 6.75276 6.63327 6.89605 6.53421 7.03387L6.44451 7.15826C5.95006 6.52593 5.42867 5.94928 4.8061 5.47868C3.87285 4.77323 2.69278 4.29367 1 4.29367C0.723858 4.29367 0.5 4.06982 0.5 3.79367C0.5 3.51753 0.723858 3.29367 1 3.29367C2.90841 3.29367 4.30062 3.84303 5.40912 4.68095ZM9.72923 11.128C9.19776 10.6992 8.73593 10.1977 8.31233 9.67215C8.53162 9.38926 8.73636 9.10956 8.9299 8.84087C9.37024 9.40698 9.82669 9.92177 10.3571 10.3497C11.1939 11.0247 12.2234 11.4876 13.681 11.5228L12.4789 10.3207C12.2837 10.1254 12.2837 9.80886 12.4789 9.61359C12.6742 9.41833 12.9908 9.41833 13.186 9.61359L15.2439 11.6714C15.4391 11.8667 15.4391 12.1833 15.2439 12.3785L13.186 14.4363C12.9908 14.6316 12.6742 14.6316 12.4789 14.4363C12.2837 14.2411 12.2837 13.9245 12.4789 13.7292L13.685 12.5231C11.9853 12.4878 10.737 11.941 9.72923 11.128Z" fill="black"/>
</svg>
