<svg width="16" height="16" viewBox="0 0 16 16" fill="none" xmlns="http://www.w3.org/2000/svg">
<path fill-rule="evenodd" clip-rule="evenodd" d="M6.00002 0.5C5.72388 0.5 5.50002 0.723858 5.50002 1C5.50002 1.27614 5.72388 1.5 6.00002 1.5H7.50002V2.5C7.50002 2.50628 7.50014 2.51254 7.50037 2.51877C4.14414 2.77289 1.5 5.57662 1.5 8.99791C1.5 12.5866 4.40921 15.4958 7.9979 15.4958C11.5866 15.4958 14.4958 12.5866 14.4958 8.99791C14.4958 7.00279 13.5966 5.21768 12.1814 4.02571L12.8536 3.35355C13.0488 3.15829 13.0488 2.84171 12.8536 2.64645C12.6583 2.45118 12.3417 2.45118 12.1465 2.64645L11.3579 3.43503C10.5121 2.92306 9.54014 2.59855 8.49967 2.51909C8.4999 2.51276 8.50002 2.50639 8.50002 2.5V1.5H10C10.2762 1.5 10.5 1.27614 10.5 1C10.5 0.723858 10.2762 0.5 10 0.5H8.00002H6.00002ZM2.45 8.99791C2.45 5.93389 4.93389 3.45001 7.9979 3.45001C11.0619 3.45001 13.5458 5.93389 13.5458 8.99791C13.5458 12.0619 11.0619 14.5458 7.9979 14.5458C4.93389 14.5458 2.45 12.0619 2.45 8.99791ZM8.50002 5C8.50002 4.72386 8.27617 4.5 8.00002 4.5C7.72388 4.5 7.50002 4.72386 7.50002 5V9C7.50002 9.27614 7.72388 9.5 8.00002 9.5C8.27617 9.5 8.50002 9.27614 8.50002 9V5Z" fill="black"/>
</svg>
