<svg width="16" height="16" viewBox="0 0 16 16" fill="none" xmlns="http://www.w3.org/2000/svg">
<path fill-rule="evenodd" clip-rule="evenodd" d="M3.5 3C3.22386 3 3 3.22386 3 3.5V5.86364C3 6.13978 3.22386 6.36364 3.5 6.36364H5.86364C6.13978 6.36364 6.36364 6.13978 6.36364 5.86364V3.5C6.36364 3.22386 6.13978 3 5.86364 3H3.5ZM2 3.5C2 2.67157 2.67157 2 3.5 2H5.86364C6.69206 2 7.36364 2.67157 7.36364 3.5V5.86364C7.36364 6.69206 6.69206 7.36364 5.86364 7.36364H5V8.54545H5.86364C6.69206 8.54545 7.36364 9.21703 7.36364 10.0455V11H8.54545V10.0455C8.54545 9.21703 9.21703 8.54545 10.0455 8.54545H12.4091C13.2375 8.54545 13.9091 9.21703 13.9091 10.0455V12.4091C13.9091 13.2375 13.2375 13.9091 12.4091 13.9091H10.0455C9.21703 13.9091 8.54545 13.2375 8.54545 12.4091V12H7.36364V12.4091C7.36364 13.2375 6.69206 13.9091 5.86364 13.9091H3.5C2.67157 13.9091 2 13.2375 2 12.4091V10.0455C2 9.21703 2.67157 8.54545 3.5 8.54545H4V7.36364H3.5C2.67157 7.36364 2 6.69206 2 5.86364V3.5ZM3.5 9.54545C3.22386 9.54545 3 9.76931 3 10.0455V12.4091C3 12.6852 3.22386 12.9091 3.5 12.9091H5.86364C6.13978 12.9091 6.36364 12.6852 6.36364 12.4091V10.0455C6.36364 9.76931 6.13978 9.54545 5.86364 9.54545H3.5ZM9.54545 10.0455C9.54545 9.76931 9.76931 9.54545 10.0455 9.54545H12.4091C12.6852 9.54545 12.9091 9.76931 12.9091 10.0455V12.4091C12.9091 12.6852 12.6852 12.9091 12.4091 12.9091H10.0455C9.76931 12.9091 9.54545 12.6852 9.54545 12.4091V10.0455Z" fill="black"/>
</svg>
