<svg width="16" height="16" viewBox="0 0 16 16" fill="none" xmlns="http://www.w3.org/2000/svg">
<path fill-rule="evenodd" clip-rule="evenodd" d="M9.52137 3.82159V3.03601H2.44885V3.82159C2.44885 4.02072 2.22741 4.13993 2.06119 4.03028L0.112338 2.74469C-0.037446 2.64588 -0.0374462 2.42613 0.112338 2.32732L2.06119 1.04173C2.22741 0.932086 2.44885 1.05129 2.44885 1.25042V2.03601H9.52137V1.25042C9.52137 1.05129 9.74282 0.932086 9.90904 1.04173L11.8579 2.32732C12.0077 2.42613 12.0077 2.64588 11.8579 2.74469L9.90904 4.03028C9.74282 4.13993 9.52137 4.02072 9.52137 3.82159ZM2.9801 5.54672C2.15168 5.54672 1.4801 6.2183 1.4801 7.04672V13.0467C1.4801 13.8751 2.15168 14.5467 2.9801 14.5467H8.9801C9.80853 14.5467 10.4801 13.8751 10.4801 13.0467V7.04672C10.4801 6.2183 9.80853 5.54673 8.9801 5.54673L2.9801 5.54672ZM0.480103 7.04672C0.480103 5.66601 1.59939 4.54672 2.9801 4.54672L8.9801 4.54673C10.3608 4.54673 11.4801 5.66601 11.4801 7.04672V13.0467C11.4801 14.4274 10.3608 15.5467 8.9801 15.5467H2.9801C1.59939 15.5467 0.480103 14.4274 0.480103 13.0467V7.04672ZM14.4851 5.99976H15.2707C15.4698 5.99976 15.589 5.77831 15.4794 5.61209L14.1938 3.66324C14.095 3.51346 13.8752 3.51346 13.7764 3.66324L12.4908 5.6121C12.3812 5.77831 12.5004 5.99976 12.6995 5.99976H13.4851V13.0723H12.6995C12.5004 13.0723 12.3812 13.2937 12.4908 13.4599L13.7764 15.4088C13.8752 15.5586 14.095 15.5586 14.1938 15.4088L15.4794 13.4599C15.589 13.2937 15.4698 13.0723 15.2707 13.0723H14.4851V5.99976Z" fill="black"/>
</svg>
