<svg width="16" height="16" viewBox="0 0 16 16" fill="none" xmlns="http://www.w3.org/2000/svg">
<path fill-rule="evenodd" clip-rule="evenodd" d="M6.4751 3.97501C6.4751 5.35571 5.3558 6.47501 3.9751 6.47501C2.59439 6.47501 1.4751 5.35571 1.4751 3.97501C1.4751 2.5943 2.59439 1.47501 3.9751 1.47501C5.3558 1.47501 6.4751 2.5943 6.4751 3.97501ZM6.4751 11.975C6.4751 13.3557 5.3558 14.475 3.9751 14.475C2.59439 14.475 1.4751 13.3557 1.4751 11.975C1.4751 10.5943 2.59439 9.47501 3.9751 9.47501C5.3558 9.47501 6.4751 10.5943 6.4751 11.975ZM11.9751 6.47501C13.3558 6.47501 14.4751 5.35571 14.4751 3.97501C14.4751 2.5943 13.3558 1.47501 11.9751 1.47501C10.5944 1.47501 9.4751 2.5943 9.4751 3.97501C9.4751 5.35571 10.5944 6.47501 11.9751 6.47501ZM14.4751 11.975C14.4751 13.3557 13.3558 14.475 11.9751 14.475C10.5944 14.475 9.4751 13.3557 9.4751 11.975C9.4751 10.5943 10.5944 9.47501 11.9751 9.47501C13.3558 9.47501 14.4751 10.5943 14.4751 11.975Z" fill="black"/>
</svg>
