<svg width="16" height="16" viewBox="0 0 16 16" fill="none" xmlns="http://www.w3.org/2000/svg">
<path fill-rule="evenodd" clip-rule="evenodd" d="M3.975 1C2.33195 1 1 2.33195 1 3.975C1 5.61803 2.33195 6.95 3.975 6.95C5.61804 6.95 6.95 5.61804 6.95 3.975C6.95 2.33195 5.61803 1 3.975 1ZM1.95 3.975C1.95 2.85663 2.85663 1.95 3.975 1.95C5.09337 1.95 6 2.85663 6 3.975C6 5.09336 5.09337 6 3.975 6C2.85663 6 1.95 5.09337 1.95 3.975ZM3.975 9C2.33195 9 1 10.332 1 11.975C1 13.618 2.33195 14.95 3.975 14.95C5.61804 14.95 6.95 13.618 6.95 11.975C6.95 10.332 5.61803 9 3.975 9ZM1.95 11.975C1.95 10.8566 2.85663 9.95 3.975 9.95C5.09337 9.95 6 10.8566 6 11.975C6 13.0934 5.09337 14 3.975 14C2.85663 14 1.95 13.0934 1.95 11.975ZM9 3.975C9 2.33195 10.332 1 11.975 1C13.618 1 14.95 2.33195 14.95 3.975C14.95 5.61804 13.618 6.95 11.975 6.95C10.332 6.95 9 5.61803 9 3.975ZM11.975 1.95C10.8566 1.95 9.95 2.85663 9.95 3.975C9.95 5.09337 10.8566 6 11.975 6C13.0934 6 14 5.09336 14 3.975C14 2.85663 13.0934 1.95 11.975 1.95ZM11.975 9C10.332 9 9 10.332 9 11.975C9 13.618 10.332 14.95 11.975 14.95C13.618 14.95 14.95 13.618 14.95 11.975C14.95 10.332 13.618 9 11.975 9ZM9.95 11.975C9.95 10.8566 10.8566 9.95 11.975 9.95C13.0934 9.95 14 10.8566 14 11.975C14 13.0934 13.0934 14 11.975 14C10.8566 14 9.95 13.0934 9.95 11.975Z" fill="black"/>
</svg>
