<svg width="16" height="16" viewBox="0 0 16 16" fill="none" xmlns="http://www.w3.org/2000/svg">
<g clip-path="url(#clip0_517_1492)">
<path fill-rule="evenodd" clip-rule="evenodd" d="M1.59995 0.5C1.10289 0.5 0.699951 0.902944 0.699951 1.4V3.09787C0.699951 3.59493 1.10289 3.99787 1.59995 3.99787H1.99885V11.8192H1.59995C1.10289 11.8192 0.699951 12.2221 0.699951 12.7192V14.417C0.699951 14.9141 1.10289 15.317 1.59995 15.317H3.29782C3.79488 15.317 4.19782 14.9141 4.19782 14.417V14.0181H12.0191V14.417C12.0191 14.9141 12.422 15.317 12.9191 15.317H14.6169C15.114 15.317 15.5169 14.9141 15.5169 14.417V12.7192C15.5169 12.2221 15.114 11.8192 14.6169 11.8192H14.218V3.99787H14.6169C15.114 3.99787 15.5169 3.59493 15.5169 3.09787V1.4C15.5169 0.902944 15.114 0.5 14.6169 0.5H12.9191C12.422 0.5 12.0191 0.902944 12.0191 1.4V1.79895H4.19782V1.4C4.19782 0.902944 3.79488 0.5 3.29782 0.5H1.59995ZM4.19782 2.69895V3.09787C4.19782 3.59493 3.79488 3.99787 3.29782 3.99787H2.89885V11.8192H3.29782C3.79488 11.8192 4.19782 12.2221 4.19782 12.7192V13.1181H12.0191V12.7192C12.0191 12.2221 12.422 11.8192 12.9191 11.8192H13.318V3.99787H12.9191C12.422 3.99787 12.0191 3.59493 12.0191 3.09787V2.69895H4.19782ZM1.59995 1.4H2.39782H2.49995H3.29782V2.19787V2.3V3.09787H2.49995H2.39782H1.59995V2.3V2.19787V1.4ZM1.59995 12.7192H2.39782H2.49995H3.29782V13.517V13.6192V14.417H2.49995H2.39782H1.59995V13.6192V13.517V12.7192ZM14.6169 1.4H13.8191H13.7169H12.9191V2.19787V2.3V3.09787H13.7169H13.8191H14.6169V2.3V2.19787V1.4ZM12.9191 12.7192H13.7169H13.8191H14.6169V13.517V13.6192V14.417H13.8191H13.7169H12.9191V13.6192V13.517V12.7192Z" fill="black"/>
</g>
<defs>
<clipPath id="clip0_517_1492">
<rect width="16" height="16" fill="white"/>
</clipPath>
</defs>
</svg>
