<svg width="16" height="16" viewBox="0 0 16 16" fill="none" xmlns="http://www.w3.org/2000/svg">
<path fill-rule="evenodd" clip-rule="evenodd" d="M7.72735 3.64381C7.92769 3.32899 8.38981 3.33662 8.57965 3.65789L13.3588 11.7456C13.5557 12.0789 13.3155 12.5 12.9283 12.5H3.00243C2.60789 12.5 2.36878 12.0644 2.5806 11.7316L7.72735 3.64381ZM9.44057 3.14916C8.87106 2.18537 7.48471 2.16248 6.88369 3.10694L1.73694 11.1947C1.10148 12.1933 1.81879 13.5 3.00243 13.5H12.9283C14.0898 13.5 14.8106 12.2368 14.2197 11.2369L9.44057 3.14916ZM8.13785 4.70001C7.76129 4.70001 7.46191 5.01608 7.48232 5.39208L7.69491 9.30817C7.7087 9.5623 7.91879 9.76129 8.17329 9.76129C8.43114 9.76129 8.64274 9.55721 8.65207 9.29953L8.79391 5.38024C8.80736 5.0086 8.50973 4.70001 8.13785 4.70001ZM8.16764 11.8637C8.547 11.8637 8.85453 11.5549 8.85453 11.174C8.85453 10.7931 8.547 10.4843 8.16764 10.4843C7.78828 10.4843 7.48075 10.7931 7.48075 11.174C7.48075 11.5549 7.78828 11.8637 8.16764 11.8637Z" fill="black"/>
</svg>
