<svg width="16" height="16" viewBox="0 0 16 16" fill="none" xmlns="http://www.w3.org/2000/svg">
<path fill-rule="evenodd" clip-rule="evenodd" d="M2.5 3C2.5 2.72386 2.72386 2.5 3 2.5L13 2.5C13.2761 2.5 13.5 2.72386 13.5 3V13C13.5 13.2761 13.2761 13.5 13 13.5H3C2.72386 13.5 2.5 13.2761 2.5 13V3ZM3 1.5C2.17157 1.5 1.5 2.17157 1.5 3V13C1.5 13.8284 2.17157 14.5 3 14.5H13C13.8284 14.5 14.5 13.8284 14.5 13V3C14.5 2.17158 13.8284 1.5 13 1.5L3 1.5ZM9.60297 11.2036L9.00527 11.7144C9.34681 12.2946 10.0909 12.6667 10.8411 12.6667C11.7437 12.6667 12.5 12.118 12.5 11.2288C12.5 10.2698 11.6944 10.0839 10.9985 9.92322L10.9448 9.91081C10.3531 9.77207 10.0177 9.69009 10.0177 9.29279C10.0177 8.93333 10.3409 8.68739 10.8106 8.68739C11.3229 8.68739 11.6461 8.95856 11.8901 9.34955L12.4634 8.83874C12.1707 8.36577 11.5851 8 10.835 8C9.95061 8 9.25532 8.53604 9.25532 9.37477C9.25532 10.2577 9.96281 10.4595 10.6215 10.6234C10.6835 10.639 10.7437 10.6537 10.8019 10.6678C11.3569 10.8029 11.7315 10.8942 11.7315 11.3108C11.7315 11.7459 11.3595 11.9793 10.8655 11.9793C10.3653 11.9793 9.90792 11.6955 9.60297 11.2036ZM9.09842 8.77568H7.68955V12.5973H6.90887V8.77568H5.5V8.06937H9.09842V8.77568Z" fill="black"/>
</svg>
