<svg width="16" height="16" viewBox="0 0 16 16" fill="none" xmlns="http://www.w3.org/2000/svg">
<path fill-rule="evenodd" clip-rule="evenodd" d="M2.93742 5.56186C3.65915 4.25956 5.01334 2.93064 6.74631 2.58667C8.007 2.33644 9.55665 2.59167 11.3126 3.90432L10.1556 4.94823C10.0019 5.08684 9.94956 5.30575 10.0238 5.49888C10.0981 5.69202 10.2836 5.81947 10.4905 5.81947H13.5637C13.8399 5.81947 14.0637 5.59561 14.0637 5.31947V2.54678C14.0637 2.34921 13.9474 2.17017 13.7669 2.0899C13.5864 2.00964 13.3755 2.04319 13.2288 2.17554L12.0674 3.22334C10.0723 1.6772 8.19476 1.27966 6.55162 1.6058C4.44304 2.02432 2.87765 3.60672 2.06276 5.07713C1.92891 5.31866 2.01619 5.62297 2.25772 5.75682C2.49926 5.89068 2.80357 5.80339 2.93742 5.56186ZM13.1263 10.4389C12.4046 11.7412 11.0504 13.0701 9.31744 13.4141C8.05675 13.6643 6.5071 13.4091 4.75112 12.0965L5.90817 11.0525C6.0618 10.9139 6.11419 10.695 6.03994 10.5019C5.96569 10.3088 5.78016 10.1813 5.57324 10.1813H2.5C2.22386 10.1813 2 10.4052 2 10.6813V13.454C2 13.6516 2.11633 13.8306 2.29686 13.9109C2.47739 13.9911 2.68825 13.9576 2.83494 13.8252L3.99632 12.7774C5.99148 14.3236 7.86899 14.7211 9.51213 14.395C11.6207 13.9765 13.1861 12.3941 14.001 10.9236C14.1348 10.6821 14.0476 10.3778 13.806 10.244C13.5645 10.1101 13.2602 10.1974 13.1263 10.4389Z" fill="black"/>
</svg>
