<svg width="16" height="16" viewBox="0 0 16 16" fill="none" xmlns="http://www.w3.org/2000/svg">
<path fill-rule="evenodd" clip-rule="evenodd" d="M1.4751 7.99791C1.4751 4.39541 4.39551 1.47501 7.998 1.47501C11.6005 1.47501 14.5209 4.39541 14.5209 7.99791C14.5209 11.6004 11.6005 14.5208 7.998 14.5208C4.3955 14.5208 1.4751 11.6004 1.4751 7.99791ZM7.998 2.47501C4.94779 2.47501 2.4751 4.9477 2.4751 7.99791C2.4751 11.0481 4.94779 13.5208 7.998 13.5208C11.0482 13.5208 13.5209 11.0481 13.5209 7.99791C13.5209 4.9477 11.0482 2.47501 7.998 2.47501ZM6.05188 5.95179C6.05188 4.87385 6.92573 4 8.00367 4C9.0816 4 9.95546 4.87385 9.95546 5.95179C9.95546 7.02973 9.0816 7.90358 8.00367 7.90358C6.92573 7.90358 6.05188 7.02972 6.05188 5.95179ZM8.00367 5C7.47801 5 7.05188 5.42613 7.05188 5.95179C7.05188 6.47744 7.47801 6.90358 8.00367 6.90358C8.52932 6.90358 8.95546 6.47744 8.95546 5.95179C8.95546 5.42613 8.52932 5 8.00367 5ZM8.00368 8.31093C7.13513 8.31093 6.29384 8.50785 5.65581 8.97342C4.99722 9.454 4.6001 10.1901 4.6001 11.1464H5.6001C5.6001 10.4991 5.85296 10.0675 6.24527 9.78122C6.65813 9.47995 7.26862 9.31093 8.00368 9.31093C8.73872 9.31093 9.34922 9.47995 9.76208 9.78122C10.1544 10.0675 10.4073 10.4991 10.4073 11.1464H11.4073C11.4073 10.1901 11.0101 9.454 10.3515 8.97342C9.71351 8.50785 8.87222 8.31093 8.00368 8.31093Z" fill="black"/>
</svg>
