<svg width="16" height="16" viewBox="0 0 16 16" fill="none" xmlns="http://www.w3.org/2000/svg">
<path fill-rule="evenodd" clip-rule="evenodd" d="M3.37893 7.64645C2.01209 9.01328 2.01209 11.2294 3.37893 12.5962C4.74575 13.963 6.96184 13.963 8.32867 12.5962L9.03578 11.8891C9.23104 11.6938 9.23104 11.3772 9.03578 11.182C8.84052 10.9867 8.52394 10.9867 8.32867 11.182L7.62157 11.8891C6.64526 12.8654 5.06233 12.8654 4.08603 11.8891C3.10972 10.9128 3.10972 9.32986 4.08603 8.35356L4.79314 7.64645C4.9884 7.45119 4.9884 7.1346 4.79314 6.93934C4.59788 6.74408 4.2813 6.74408 4.08603 6.93934L3.37893 7.64645ZM7.62157 3.40381C8.9884 2.03697 11.2045 2.03697 12.5713 3.40381C13.9381 4.77063 13.9381 6.98672 12.5713 8.35356L11.8642 9.06066C11.6689 9.25592 11.3524 9.25592 11.1571 9.06066C10.9618 8.8654 10.9618 8.54882 11.1571 8.35356L11.8642 7.64645C12.8405 6.67014 12.8405 5.08722 11.8642 4.11091C10.8879 3.13461 9.30498 3.13461 8.32867 4.11091L7.62157 4.81802C7.42631 5.01328 7.10972 5.01328 6.91446 4.81802C6.7192 4.62276 6.7192 4.30618 6.91446 4.11091L7.62157 3.40381Z" fill="black"/>
</svg>
