<svg width="16" height="16" viewBox="0 0 16 16" fill="none" xmlns="http://www.w3.org/2000/svg">
<path fill-rule="evenodd" clip-rule="evenodd" d="M12.9045 2.79409C13.0669 2.57076 13.0175 2.25805 12.7942 2.09563C12.5709 1.93321 12.2581 1.98259 12.0957 2.20592L4.09573 13.2059C3.93331 13.4292 3.98269 13.742 4.20601 13.9044C4.42934 14.0668 4.74205 14.0174 4.90447 13.7941L12.9045 2.79409ZM2.4751 8C2.4751 9.33206 3.51691 10.4208 4.83017 10.4959L4.16792 11.4065C2.62405 11.042 1.4751 9.65518 1.4751 8C1.4751 6.06701 3.0421 4.5 4.9751 4.5H5.9751C6.25124 4.5 6.4751 4.72386 6.4751 5C6.4751 5.27614 6.25124 5.5 5.9751 5.5H4.9751C3.59439 5.5 2.4751 6.61929 2.4751 8ZM13.4751 8C13.4751 6.98853 12.8744 6.11735 12.0103 5.72374L12.6072 4.90303C13.718 5.48965 14.4751 6.65641 14.4751 8C14.4751 9.93298 12.9081 11.5 10.9751 11.5H9.9751C9.69896 11.5 9.4751 11.2761 9.4751 11C9.4751 10.7239 9.69896 10.5 9.9751 10.5H10.9751C12.3558 10.5 13.4751 9.3807 13.4751 8Z" fill="black"/>
</svg>
