<svg width="16" height="16" viewBox="0 0 16 16" fill="none" xmlns="http://www.w3.org/2000/svg">
<path fill-rule="evenodd" clip-rule="evenodd" d="M2.11765 7.31933L1 6.23109C1.54902 5.63305 4.08824 3.28992 7.97059 3.28992C11.9706 3.28992 14.4118 5.61345 15 6.23109L13.8824 7.31933C13.4804 6.87815 11.3532 5.02521 7.97059 5.02521C4.64706 5.02521 2.48039 6.89776 2.11765 7.31933ZM3.52944 8.76054L4.64709 9.84877C5.00983 9.4272 6.18238 8.57818 7.97062 8.55465C9.75885 8.53112 11.0098 9.4076 11.4118 9.84877L12.5294 8.76054C11.9412 8.14289 10.2059 6.91348 7.97062 6.93701C5.73532 6.96054 4.07846 8.1625 3.52944 8.76054ZM7.99991 13.2311L6.11755 11.4076C6.32344 11.0939 6.98814 10.4605 7.99991 10.437C9.01167 10.4135 9.67638 11.0743 9.88226 11.4076L7.99991 13.2311Z" fill="black"/>
<path d="M1 6.23109L0.815837 6.06203C0.724397 6.16163 0.72872 6.31588 0.825596 6.41021L1 6.23109ZM2.11765 7.31933L1.94324 7.49845C1.99266 7.54656 2.05976 7.57213 2.12867 7.56909C2.19757 7.56605 2.26216 7.53467 2.30715 7.48239L2.11765 7.31933ZM15 6.23109L15.1744 6.41021C15.2726 6.31464 15.2755 6.15788 15.181 6.05868L15 6.23109ZM13.8824 7.31933L13.6976 7.4877C13.7432 7.53778 13.8072 7.56719 13.8749 7.56922C13.9426 7.57124 14.0082 7.5457 14.0568 7.49845L13.8824 7.31933ZM4.64709 9.84877L4.47268 10.0279C4.5221 10.076 4.5892 10.1016 4.65811 10.0985C4.72701 10.0955 4.7916 10.0641 4.83659 10.0118L4.64709 9.84877ZM3.52944 8.76054L3.34528 8.59147C3.25384 8.69107 3.25816 8.84533 3.35504 8.93965L3.52944 8.76054ZM7.97062 8.55465L7.96733 8.30468L7.97062 8.55465ZM11.4118 9.84877L11.227 10.0171C11.2726 10.0672 11.3366 10.0966 11.4043 10.0987C11.472 10.1007 11.5377 10.0751 11.5862 10.0279L11.4118 9.84877ZM12.5294 8.76054L12.7038 8.93965C12.802 8.84409 12.805 8.68732 12.7105 8.58812L12.5294 8.76054ZM7.97062 6.93701L7.97325 7.18699L7.97325 7.18699L7.97062 6.93701ZM6.11755 11.4076L5.90854 11.2704C5.84271 11.3707 5.85743 11.5037 5.9436 11.5871L6.11755 11.4076ZM7.99991 13.2311L7.82596 13.4107C7.92291 13.5046 8.07691 13.5046 8.17386 13.4107L7.99991 13.2311ZM7.99991 10.437L7.99409 10.1871L7.99409 10.1871L7.99991 10.437ZM9.88226 11.4076L10.0562 11.5871C10.1405 11.5055 10.1567 11.3761 10.095 11.2762L9.88226 11.4076ZM0.825596 6.41021L1.94324 7.49845L2.29205 7.14021L1.1744 6.05198L0.825596 6.41021ZM7.97059 3.03992C3.98795 3.03992 1.38688 5.44 0.815837 6.06203L1.18416 6.40016C1.71116 5.82611 4.18852 3.53992 7.97059 3.53992V3.03992ZM15.181 6.05868C14.5743 5.42156 12.0717 3.03992 7.97059 3.03992V3.53992C11.8695 3.53992 14.2493 5.80533 14.819 6.40351L15.181 6.05868ZM14.0568 7.49845L15.1744 6.41021L14.8256 6.05198L13.7079 7.14021L14.0568 7.49845ZM7.97059 5.27521C11.2624 5.27521 13.3272 7.08117 13.6976 7.4877L14.0672 7.15096C13.6336 6.67513 11.444 4.77521 7.97059 4.77521V5.27521ZM2.30715 7.48239C2.63476 7.10166 4.73689 5.27521 7.97059 5.27521V4.77521C4.55723 4.77521 2.32603 6.69386 1.92814 7.15627L2.30715 7.48239ZM4.82149 9.66965L3.70384 8.58142L3.35504 8.93965L4.47268 10.0279L4.82149 9.66965ZM7.96733 8.30468C6.1045 8.32919 4.86512 9.21208 4.45758 9.68571L4.83659 10.0118C5.15454 9.64232 6.26027 8.82718 7.9739 8.80463L7.96733 8.30468ZM11.5966 9.6804C11.1525 9.19302 9.83555 8.28009 7.96733 8.30468L7.9739 8.80463C9.68215 8.78215 10.8671 9.62218 11.227 10.0171L11.5966 9.6804ZM12.355 8.58142L11.2374 9.66965L11.5862 10.0279L12.7038 8.93965L12.355 8.58142ZM7.97325 7.18699C10.1215 7.16438 11.7942 8.35102 12.3484 8.93295L12.7105 8.58812C12.0882 7.93476 10.2904 6.66258 7.96798 6.68702L7.97325 7.18699ZM3.7136 8.9296C4.2265 8.37091 5.82131 7.20965 7.97325 7.18699L7.96798 6.68702C5.64933 6.71143 3.93041 7.95409 3.34528 8.59147L3.7136 8.9296ZM5.9436 11.5871L7.82596 13.4107L8.17386 13.0516L6.2915 11.228L5.9436 11.5871ZM7.99409 10.1871C6.88046 10.213 6.14748 10.9063 5.90854 11.2704L6.32657 11.5448C6.49939 11.2814 7.09582 10.7081 8.00572 10.6869L7.99409 10.1871ZM10.095 11.2762C9.858 10.8926 9.12065 10.1609 7.99409 10.1871L8.00572 10.6869C8.90269 10.6661 9.49475 11.2559 9.66956 11.539L10.095 11.2762ZM8.17386 13.4107L10.0562 11.5871L9.70831 11.228L7.82596 13.0516L8.17386 13.4107Z" fill="black"/>
</svg>
