<svg width="16" height="16" viewBox="0 0 16 16" fill="none" xmlns="http://www.w3.org/2000/svg">
<path fill-rule="evenodd" clip-rule="evenodd" d="M8.46817 4.89462V3.69462L10.1889 1.97387C10.3842 1.77861 10.3842 1.46203 10.1889 1.26676C9.99366 1.0715 9.67707 1.0715 9.48181 1.26676L8.46817 2.28041V0.5C8.46817 0.223857 8.24431 0 7.96817 0C7.69203 0 7.46817 0.223857 7.46817 0.5V2.28041L6.45453 1.26676C6.25927 1.0715 5.94268 1.0715 5.74742 1.26676C5.55216 1.46203 5.55216 1.77861 5.74742 1.97387L7.46817 3.69462V4.89461C6.70082 5.01846 6.02734 5.42269 5.55621 5.99884L4.51671 5.39868L3.88687 3.04809C3.8154 2.78136 3.54123 2.62307 3.2745 2.69454C3.00776 2.76601 2.84947 3.04018 2.92094 3.30691L3.29196 4.69157L1.75008 3.80137C1.51094 3.6633 1.20514 3.74523 1.06707 3.98438C0.929 4.22353 1.01094 4.52932 1.25008 4.66739L2.79196 5.5576L1.4073 5.92862C1.14057 6.00009 0.982275 6.27426 1.05375 6.54099C1.12522 6.80772 1.39939 6.96601 1.66612 6.89454L4.01671 6.2647L5.05554 6.86448C4.92534 7.20769 4.85407 7.5799 4.85407 7.96877C4.85407 8.35763 4.92535 8.72985 5.05555 9.07307L4.01671 9.67284L1.66612 9.043C1.39939 8.97153 1.12522 9.12982 1.05375 9.39655C0.982279 9.66329 1.14057 9.93746 1.4073 10.0089L2.79197 10.3799L1.25009 11.2702C1.01094 11.4082 0.929004 11.714 1.06708 11.9532C1.20515 12.1923 1.51094 12.2742 1.75009 12.1362L3.29197 11.246L2.92095 12.6306C2.84948 12.8974 3.00777 13.1715 3.2745 13.243C3.54123 13.3145 3.8154 13.1562 3.88687 12.8895L4.51671 10.5389L5.55622 9.9387C6.02735 10.5148 6.70082 10.9191 7.46817 11.0429V12.2429L5.74742 13.9637C5.55216 14.1589 5.55216 14.4755 5.74742 14.6708C5.94268 14.866 6.25927 14.866 6.45453 14.6708L7.46817 13.6571V15.4375C7.46817 15.7137 7.69203 15.9375 7.96817 15.9375C8.24431 15.9375 8.46817 15.7137 8.46817 15.4375V13.6571L9.48181 14.6708C9.67707 14.866 9.99366 14.866 10.1889 14.6708C10.3842 14.4755 10.3842 14.1589 10.1889 13.9637L8.46817 12.2429V11.0429C9.23553 10.9191 9.90901 10.5148 10.3801 9.93863L11.4198 10.5389L12.0496 12.8895C12.1211 13.1562 12.3952 13.3145 12.662 13.243C12.9287 13.1715 13.087 12.8974 13.0155 12.6306L12.6445 11.246L14.1864 12.1362C14.4255 12.2742 14.7313 12.1923 14.8694 11.9532C15.0075 11.714 14.9255 11.4082 14.6864 11.2701L13.1445 10.3799L14.5292 10.0089C14.7959 9.93746 14.9542 9.66329 14.8827 9.39655C14.8113 9.12982 14.5371 8.97153 14.2704 9.043L11.9198 9.67284L10.8808 9.07297C11.011 8.72978 11.0822 8.35759 11.0822 7.96877C11.0822 7.57992 11.0109 7.20771 10.8808 6.86451L11.9196 6.2647L14.2702 6.89454C14.537 6.96601 14.8111 6.80772 14.8826 6.54099C14.9541 6.27425 14.7958 6.00009 14.529 5.92862L13.1444 5.5576L14.6863 4.66739C14.9254 4.52932 15.0073 4.22353 14.8693 3.98438C14.7312 3.74523 14.4254 3.6633 14.1863 3.80137L12.6444 4.69157L13.0154 3.30691C13.0869 3.04018 12.9286 2.76601 12.6619 2.69454C12.3951 2.62307 12.121 2.78136 12.0495 3.04809L11.4196 5.39868L10.3801 5.99886C9.90898 5.42271 9.23551 5.01848 8.46817 4.89462ZM5.85407 7.96877C5.85407 6.8012 6.80057 5.85469 7.96814 5.85469C9.1357 5.85469 10.0822 6.8012 10.0822 7.96877C10.0822 9.13632 9.1357 10.0828 7.96814 10.0828C6.80057 10.0828 5.85407 9.13633 5.85407 7.96877ZM9.08852 7.96876C9.08852 8.58748 8.58693 9.08907 7.9682 9.08907C7.34946 9.08907 6.84788 8.58748 6.84788 7.96876C6.84788 7.35002 7.34946 6.84844 7.9682 6.84844C8.58693 6.84844 9.08852 7.35002 9.08852 7.96876Z" fill="black"/>
</svg>
