<svg width="16" height="16" viewBox="0 0 16 16" fill="none" xmlns="http://www.w3.org/2000/svg">
<path fill-rule="evenodd" clip-rule="evenodd" d="M12.2787 13.2767L5.02827 2.72327H3.71106L10.881 13.2767H12.2787ZM5.47856 1.77251H3.06513H2.94726H2.23518H2.09524C2.01892 1.77251 1.97371 1.8579 2.01659 1.92102L2.09524 2.03677L2.4954 2.62578L2.56164 2.72327L6.64929 8.73994L2.05135 14.0703C1.9982 14.1319 2.04197 14.2275 2.12334 14.2275H3.01288C3.04068 14.2275 3.06708 14.2153 3.08514 14.1942L7.13593 9.45622L10.3492 14.1858C10.3669 14.2119 10.3963 14.2275 10.4278 14.2275H12.9319H13.0527H13.7664H13.9048C13.9813 14.2275 14.0265 14.1416 13.9831 14.0786L13.9048 13.9645L13.5007 13.3763L13.4322 13.2767L5.55692 1.81375C5.53919 1.78794 5.50988 1.77251 5.47856 1.77251ZM8.69003 6.37413L9.17165 7.07515L13.5711 1.92937C13.6238 1.86768 13.58 1.77251 13.4988 1.77251H12.7029C12.6753 1.77251 12.649 1.78455 12.6309 1.80549L8.69003 6.37413Z" fill="black"/>
</svg>
